<?xml version="1.0" encoding="utf-8"?>
<!-- Generator: Adobe Illustrator 24.1.1, SVG Export Plug-In . SVG Version: 6.00 Build 0)  -->
<svg version="1.1" id="Capa_1" xmlns="http://www.w3.org/2000/svg" xmlns:xlink="http://www.w3.org/1999/xlink" x="0px" y="0px"
	 viewBox="0 0 566.9 566.9" style="enable-background:new 0 0 566.9 566.9;" xml:space="preserve">
<style type="text/css">
	.st0{fill:#FFFFFF;}
	.st1{fill:#00A7E7;}
	.st2{fill:#E52530;}
	.st3{fill:#FCFEFF;}
	.st4{enable-background:new    ;}
</style>
<circle class="st0" cx="283.5" cy="283.5" r="274.6"/>
<path class="st1" d="M283.6,4.3c154.5-0.2,281,125.5,279,283c-1.8,151.9-126.1,278.2-284.8,275.4C127,559.9,1,436.1,4.3,277.1
	C7.4,125.2,131.7,3.8,283.6,4.3z M283.3,553.3c147.1,0.7,266.8-117.7,270.1-263.5c3.4-152.4-118.1-273.5-264.1-276.5
	c-152.5-3-273.8,119.1-275.9,265.9C11.3,431.3,134.4,554,283.3,553.3L283.3,553.3z"/>
<path class="st1" d="M84.7,282.8c0.1-109.6,89.4-198.2,199.5-198.1c109.5,0.1,198.2,89.5,198,199.6
	c-0.2,109.5-89.6,198.1-199.8,197.8C173.2,482,84.6,392.6,84.7,282.8z M288.2,134.3c-89.3-3-152,71-153.1,139.6
	c0.6-0.1,1.1-0.3,1.6-0.5c41.6-19.9,85.9-27.8,131.6-29c18.5-0.5,37.1-0.8,55.6,0.9c3.9,0.4,4.8-1,4.2-4.4c-0.6-3.8-1-7.6-1.7-11.3
	c-4.7-28-14.9-54-28.2-78.9c-1-1.9-3.5-3.7-2-6.5c0.5,0.2,1,0.4,1.5,0.8c25.7,27.7,43.2,59.6,48.8,97.3c0.6,4.1,2,5.3,6,5.7
	c18.4,2,36.7,5.3,54.2,11.6c4.5,1.5,8.9,3.6,12.9,6.2c2.4,1.6,5.1,3.4,4.9,6.6s-3.5,4.4-6.1,5.3c-3.5,1.1-7,1.9-10.6,2.5
	c-19.4,3.4-38.9,5.9-57.9,11.1c-3.3,0.9-4.7,2.4-5.4,5.6c-2.7,12.5-6.8,24.7-12.4,36.2c-17.8,37.8-45.4,67.7-76.6,94.7
	c-0.6,0.5-1.9,0.7-1.3,2.4c17.1,3.4,34.4,4.4,51.7,1.2c62.4-11.6,104.8-47.4,121.4-108.6c16.5-60.9-1.3-113.6-49.4-154.7
	C352.3,146,321.9,135.1,288.2,134.3z M323.8,300.6c-0.6-0.1-1.3-0.1-1.9,0c-0.7,0.2-1.5,0.4-2.2,0.7
	c-51.1,20.7-89.3,56.5-119.1,102.1c-1.5,2.4-1.1,3.7,1.1,5.1c7.6,4.8,15.5,9.1,23.8,12.6c1.9,0.9,4.2,0.6,5.8-0.7
	c36.6-23.7,66-53.8,83.9-94C319.1,318.2,322,309.5,323.8,300.6z"/>
<path class="st2" d="M288.2,134.3c33.7,0.8,64.1,11.7,89.6,33.5c48.1,41.1,65.9,93.7,49.4,154.7c-16.6,61.3-59,97.1-121.4,108.6
	c-17.2,3.2-34.6,2.3-51.6-1.2c-0.6-1.7,0.7-1.8,1.3-2.4c31.2-27,58.8-56.9,76.6-94.7c5.6-11.5,9.7-23.7,12.4-36.2
	c0.6-3.2,2-4.7,5.4-5.6c19-5.3,38.6-7.7,57.9-11.1c3.6-0.6,7.1-1.4,10.6-2.5c2.7-0.9,5.9-2,6.1-5.3s-2.5-5-4.9-6.6
	c-4-2.6-8.3-4.7-12.9-6.2c-17.5-6.3-35.8-9.5-54.2-11.6c-3.9-0.4-5.4-1.6-6-5.7c-5.6-37.7-23-69.6-48.8-97.3
	c-0.4-0.3-0.9-0.6-1.5-0.8l-0.1,0.2c0.2-1.1-0.7-0.9-1.2-1.2L288.2,134.3z"/>
<path class="st3" d="M323.8,300.6c-1.8,8.9-4.7,17.6-8.5,25.8c-17.9,40.3-47.4,70.4-83.9,94c-1.7,1.3-3.9,1.6-5.8,0.7
	c-8.3-3.6-16.2-7.8-23.8-12.6c-2.2-1.4-2.6-2.7-1.1-5.1c29.8-45.6,68-81.4,119.1-102.1c0.7-0.3,1.4-0.5,2.2-0.7
	C322.5,300.5,323.2,300.5,323.8,300.6z"/>
<g class="st4">
	<path class="st1" d="M34.6,254.4c0.7-6.4,1.3-10.8,1.9-13.2c0.8-3.4,2.7-5.4,5.6-5.8c2-0.3,5.3-0.2,10,0.3c4.6,0.5,7.9,1.1,9.8,1.9
		c2.7,1.1,4.2,3.4,4.2,6.9c0.1,2.4-0.3,6.8-1,13.2c-0.7,6.5-1.3,10.9-1.9,13.3c-0.8,3.4-2.7,5.4-5.6,5.8c-2,0.3-5.4,0.2-10.1-0.3
		c-4.5-0.5-7.7-1.1-9.6-1.9c-2.7-1.1-4.2-3.4-4.2-6.9C33.6,265.3,33.9,260.9,34.6,254.4z M42.3,255.3c-0.5,4.8-0.7,7.7-0.6,8.7
		c0.2,1.1,0.7,2,1.7,2.4c1,0.5,3,0.9,6,1.2c1.8,0.2,3.1,0.2,4,0.1c1.5-0.2,2.5-1.2,3-3c0.3-1.3,0.7-3.9,1.1-7.8
		c0.4-3.6,0.6-6.1,0.6-7.3c0-1.2-0.2-2.1-0.6-2.8c-0.3-0.6-0.9-1-1.7-1.3c-0.8-0.3-2.1-0.5-3.9-0.7c-2.1-0.2-3.7-0.3-4.7-0.3
		c-1,0-1.8,0.2-2.3,0.5c-0.7,0.4-1.2,1.2-1.4,2.2C43.1,248.4,42.8,251,42.3,255.3z"/>
</g>
<g class="st4">
	<path class="st1" d="M67.7,235.1l-28.6-8.7l6.4-21c1.5-4.9,2.5-7.9,2.9-8.8c0.4-0.9,1-1.8,1.8-2.5c1-0.9,2.1-1.4,3.4-1.4
		c1.3-0.1,3.1,0.3,5.6,1.1c2.1,0.6,3.6,1.2,4.5,1.8c0.9,0.6,1.5,1.3,1.9,2.2c0.4,1,0.5,2.3,0.2,3.9c0.7-1.8,1.6-2.9,2.8-3.5
		c0.7-0.3,1.4-0.4,2.2-0.3c0.8,0.1,2.5,0.5,4.9,1.3l2.7,0.8l-2.6,8.6l-1.5-0.5c-1.6-0.5-2.7-0.8-3.5-0.9c-0.7-0.1-1.3,0-1.8,0.2
		c-0.4,0.2-0.8,0.6-1,1.1c-0.3,0.5-0.7,1.7-1.2,3.5L63,224.2l7.3,2.2L67.7,235.1z M55.9,222l3.7-12.3c0.6-2.1,1-3.4,1.1-3.9
		c0.1-0.4,0.1-0.8,0-1.2c-0.1-0.4-0.4-0.8-0.8-1.1s-1.1-0.6-2.1-0.9c-0.9-0.3-1.7-0.4-2.2-0.4c-0.5,0-0.9,0.2-1.3,0.6
		c-0.2,0.3-0.4,0.6-0.6,1s-0.6,1.6-1.2,3.6l-3.7,12.2L55.9,222z"/>
</g>
<g class="st4">
	<path class="st1" d="M82.2,167.1l4.2-8.1c1.3,0.6,2.2,1,2.5,1.2c2,1.1,3.5,2.2,4.3,3.4c0.9,1.3,1.1,3.1,0.6,5.3s-2.1,5.7-4.5,10.5
		c-2.6,5.1-4.6,8.6-5.9,10.7c-1.3,2-2.5,3.5-3.6,4.3c-1,0.7-2.1,1.1-3.2,1.1s-2.4-0.3-4-0.9c-1.3-0.5-3.5-1.6-6.6-3.2
		c-3.1-1.6-5.3-2.8-6.6-3.6c-1.3-0.8-2.2-1.6-2.8-2.3c-1.3-1.6-1.6-3.7-1-6.2c0.7-2.5,2.8-7.2,6.3-14c1.8-3.4,3.1-5.9,4.1-7.3
		c1-1.5,1.9-2.6,2.8-3.3c1.2-0.9,2.5-1.3,3.9-1.2c1.4,0.1,3.2,0.7,5.3,1.8c0.1,0.1,0.6,0.3,1.3,0.7l-4.2,8.1
		c-0.9-0.4-1.5-0.7-1.9-0.8c-0.3-0.1-0.7-0.1-1,0.1c-0.4,0.2-1,0.9-1.8,2c-0.8,1.2-1.8,3.1-3.1,5.6c-1.3,2.5-2.2,4.3-2.6,5.3
		c-0.4,1-0.5,1.8-0.4,2.4c0.1,0.7,0.6,1.4,1.4,2c0.8,0.7,2.2,1.5,4.3,2.6s3.5,1.7,4.4,1.9c0.9,0.3,1.7,0.2,2.3-0.1
		c0.6-0.3,1.2-0.9,1.8-1.8c0.6-0.9,1.6-2.7,2.9-5.2c1.6-3.1,2.6-5.2,3-6.3c0.4-1.1,0.6-1.9,0.4-2.4
		C84.8,168.7,83.8,167.9,82.2,167.1z"/>
</g>
<g class="st4">
	<path class="st1" d="M81.1,134l6.3-7.2l8.1,7l13.4-15.6l-8.1-7l6.3-7.2l22.6,19.5l-6.3,7.2l-8.2-7.1l-13.4,15.6l8.2,7.1l-6.3,7.2
		L81.1,134z"/>
</g>
<g class="st4">
	<path class="st1" d="M143.1,104l6.1-5c1.3,1.9,1.8,3.6,1.6,5.2c-0.2,1.3-0.9,2.7-2.2,4.2c-1.2,1.5-3.3,3.4-6.1,5.8
		c-2.4,2-4.3,3.4-5.8,4.2s-2.8,1.3-4,1.3c-1.3,0.1-2.5-0.3-3.6-1c-1.1-0.8-2.5-2.2-4.2-4.2c-1.3-1.6-2.2-2.8-2.7-3.6
		s-0.9-1.8-1.1-2.6c-0.4-1.8,0-3.7,1.4-5.5c1.2-1.5,3.3-3.6,6.4-6.2c2.7-2.3,4.7-3.7,6-4.5c2.3-1.3,4.2-1.7,5.9-1.2
		c1.7,0.5,3.6,2.1,5.9,4.8c0.2,0.3,0.7,0.8,1.3,1.7l-16,13.2c0.7,0.8,1.2,1.4,1.6,1.7c0.4,0.3,0.9,0.4,1.4,0.4c1-0.1,2.5-1,4.7-2.7
		c1.4-1.1,2.3-2,2.9-2.7c0.6-0.7,0.9-1.2,1-1.7C143.6,105,143.4,104.5,143.1,104z M139.1,98.9c-0.6-0.6-1-1-1.2-1.2
		c-0.3-0.2-0.6-0.3-0.9-0.3c-1-0.1-2.6,0.8-4.9,2.7c-2.1,1.7-3.3,3-3.6,3.9c-0.4,0.9-0.1,2,0.8,3.1L139.1,98.9z"/>
</g>
<g class="st4">
	<path class="st1" d="M154.5,86.2l-6.7,4.2c-0.8-1.5-1.1-2.7-1.1-3.7c0.1-1.7,0.9-3.2,2.3-4.7s4.2-3.4,8.2-5.9c3-1.8,5.1-3,6.3-3.4
		s2.4-0.5,3.7-0.2c1,0.2,1.8,0.7,2.5,1.4c0.7,0.7,1.6,1.9,2.6,3.5l6.7,10.9l-6.5,4l-1.5-2.5l-0.3,0.2c0.1,1.4-0.2,2.6-1,3.7
		c-0.4,0.6-1.1,1.3-2.1,2c-1,0.7-2.6,1.8-4.8,3.2c-1.8,1.1-3.3,1.9-4.4,2.2c-1.1,0.4-2.2,0.5-3.1,0.3c-1.4-0.3-2.7-1.4-3.8-3.3
		c-1.3-2.1-1.7-3.9-1.3-5.5c0.4-1.2,1.2-2.4,2.4-3.4c1.2-1.1,3.6-2.7,7.2-4.9c1.6-1,2.7-1.6,3.5-1.8c0.8-0.2,1.6-0.2,2.5,0l0.3-0.2
		l-0.6-1c-0.9-1.4-1.7-2.1-2.4-2.2c-0.7,0-2.1,0.6-4.2,1.8c-2.4,1.5-3.9,2.5-4.3,3.1C154.1,84.6,154.1,85.3,154.5,86.2z M162,88.2
		c-2.3,1.4-3.6,2.4-4,3c-0.5,0.7-0.5,1.4-0.1,2.1c0.5,0.7,1.1,1,1.9,0.9c0.8-0.1,2.1-0.8,3.9-1.9c2.4-1.5,3.9-2.6,4.5-3.4
		c0.7-0.8,0.8-1.6,0.3-2.4c-0.4-0.7-1.1-1-2-0.8C166.1,85.8,164.6,86.7,162,88.2z"/>
</g>
<g class="st4">
	<path class="st1" d="M170,69l8.2-3.7l12.2,11l-0.2-16.4l8.2-3.7l-0.8,23.6l-9.3,4.2L170,69z"/>
</g>
<g class="st4">
	<path class="st1" d="M199.3,56l8.4-2.4l10.1,13.1l2.2-16.7l8.4-2.5l-4.1,26.2c-0.4,2.5-0.7,4.1-0.9,4.7s-0.5,1.2-1.1,1.8
		c-1,1.1-2.7,2-5.2,2.7c-1.6,0.5-2.7,0.8-3.3,0.9l-1.5-5.3c0.3-0.1,0.9-0.3,1.7-0.5c1.3-0.4,2.2-0.9,2.6-1.5
		c0.4-0.7,0.7-1.9,0.9-3.6l-3.1,0.9L199.3,56z"/>
</g>
<g class="st4">
	<path class="st1" d="M240.4,35.9l36-3.5l0.7,7.6l-13.2,1.3l2.1,22.2l-9.5,0.9l-2.1-22.2l-13.3,1.3L240.4,35.9z"/>
</g>
<g class="st4">
	<path class="st1" d="M282.8,48.3l-7.9-0.2c0.1-1.6,0.5-2.9,1.2-3.7c1-1.3,2.5-2.2,4.5-2.6c2-0.4,5.4-0.6,10.1-0.4
		c3.5,0.1,5.9,0.3,7.1,0.6c1.3,0.3,2.3,0.9,3.2,1.8c0.7,0.7,1.1,1.6,1.4,2.6c0.2,1,0.3,2.5,0.3,4.4l-0.3,12.8l-7.6-0.2l0.1-2.9
		l-0.4,0c-0.6,1.2-1.6,2.1-2.9,2.6c-0.7,0.3-1.6,0.4-2.8,0.5c-1.2,0.1-3.1,0.1-5.8,0c-2.1-0.1-3.8-0.2-4.9-0.5
		c-1.1-0.3-2.1-0.8-2.7-1.5c-1-1-1.5-2.6-1.4-4.8c0.1-2.5,0.7-4.2,2-5.3c1-0.8,2.3-1.4,3.9-1.6c1.6-0.2,4.5-0.3,8.7-0.2
		c1.8,0,3.1,0.2,3.9,0.4c0.8,0.2,1.5,0.7,2.1,1.4l0.4,0l0-1.1c0-1.7-0.2-2.7-0.8-3.2c-0.6-0.4-2.1-0.7-4.5-0.8
		c-2.8-0.1-4.6,0-5.3,0.2C283.4,46.8,282.9,47.3,282.8,48.3z M287.9,54.1c-2.7-0.1-4.3,0-5,0.3c-0.8,0.4-1.2,0.9-1.2,1.7
		c0,0.9,0.3,1.5,1.1,1.8s2.2,0.5,4.3,0.6c2.8,0.1,4.7,0,5.7-0.4c1-0.3,1.5-0.9,1.5-1.9c0-0.8-0.4-1.4-1.2-1.8
		C292.7,54.3,291,54.2,287.9,54.1z"/>
</g>
<g class="st4">
	<path class="st1" d="M326.3,58.7l8,1.4c-0.4,1.7-0.8,3-1.2,3.9c-0.4,0.9-1.1,1.6-1.9,2.2c-1.2,0.9-2.7,1.3-4.4,1.3
		c-1.8,0-4.7-0.3-8.8-1c-3.2-0.6-5.6-1.1-7.2-1.7c-1.6-0.6-2.8-1.3-3.7-2.2c-0.9-0.9-1.4-2-1.6-3.5c-0.2-1.4,0-3.5,0.5-6.3
		c0.4-2.5,0.9-4.4,1.5-5.6c0.6-1.2,1.4-2.1,2.5-2.7c1.2-0.6,2.6-1,4.3-1c1.7,0,4.4,0.3,7.9,0.9c3.5,0.6,6.1,1.2,7.8,1.8
		c1.7,0.6,3,1.4,3.9,2.4c0.7,0.8,1.2,1.8,1.3,2.8c0.2,1,0.1,2.6-0.1,4.5l-8-1.4c0.1-1.2-0.3-2.1-1.2-2.8c-0.9-0.6-2.4-1.1-4.7-1.5
		c-2.3-0.4-4-0.5-5-0.2c-0.6,0.2-1.1,0.6-1.5,1.3c-0.4,0.7-0.7,1.7-0.9,3c-0.2,1.3-0.3,2.4-0.1,3c0.2,0.7,0.5,1.2,1.1,1.6
		c0.9,0.6,2.5,1.1,4.7,1.5c2.3,0.4,3.9,0.5,4.9,0.2C325.3,60.6,325.9,59.9,326.3,58.7z"/>
</g>
<g class="st4">
	<path class="st1" d="M344.5,44.8l7.6,2.3l-1.4,4.7l12,3.6l-1.6,5.4l-12-3.6l-1.8,5.9c-0.5,1.6-0.7,2.6-0.6,3.1
		c0.2,0.8,1,1.4,2.4,1.9c1.5,0.4,2.5,0.4,3-0.2c0.2-0.2,0.4-0.5,0.5-0.7c0.1-0.3,0.3-0.9,0.6-2l6.9,2.1c-0.6,1.9-1.2,3.3-1.6,4.1
		c-0.5,0.8-1.1,1.5-1.9,2.1c-1,0.7-2.3,1.1-3.7,1.1c-1.5,0-3.5-0.4-6.1-1.2c-2.4-0.7-4.2-1.4-5.3-2c-1.1-0.6-1.9-1.4-2.4-2.4
		c-0.4-0.7-0.6-1.4-0.6-2.1s0.1-1.6,0.3-2.7c0.1-0.4,0.4-1.5,0.9-3.3l1.8-5.9l-4-1.2l1.6-5.4l4,1.2L344.5,44.8z"/>
</g>
<g class="st4">
	<path class="st1" d="M366.6,57.1L374,60l-7.8,19.7l-7.4-2.9L366.6,57.1z M369.8,49l7.4,2.9l-2.2,5.5l-7.4-2.9L369.8,49z"/>
</g>
<g class="st4">
	<path class="st1" d="M391,82.3l7.2,3.7c-0.9,1.5-1.7,2.7-2.3,3.3c-0.7,0.7-1.5,1.2-2.4,1.5c-1.4,0.5-2.9,0.4-4.6-0.1
		s-4.4-1.7-8.1-3.6c-2.9-1.5-5-2.8-6.3-3.8c-1.3-1-2.3-2.1-2.9-3.2c-0.6-1.1-0.7-2.4-0.5-3.8c0.3-1.4,1.1-3.3,2.3-5.8
		c1.2-2.3,2.2-3.9,3.1-4.9c0.9-1,2-1.6,3.2-1.9c1.3-0.3,2.8-0.1,4.4,0.4c1.6,0.5,4.1,1.6,7.3,3.2c3.1,1.6,5.4,3,6.9,4.1
		c1.4,1.1,2.4,2.3,3,3.4c0.4,1,0.6,2,0.4,3.1c-0.2,1-0.7,2.5-1.5,4.3l-7.2-3.7c0.4-1.1,0.3-2.1-0.3-3c-0.6-0.8-2-1.8-4-2.9
		c-2.1-1.1-3.7-1.6-4.7-1.7c-0.7,0-1.3,0.2-1.8,0.8c-0.5,0.5-1.1,1.4-1.8,2.6c-0.6,1.2-1,2.2-1,2.9c-0.1,0.7,0.1,1.3,0.6,1.9
		c0.7,0.8,2,1.8,4,2.8c2.1,1.1,3.6,1.6,4.6,1.6C389.4,83.8,390.3,83.3,391,82.3z"/>
</g>
<g class="st4">
	<path class="st1" d="M410.9,87.2l-6.5-4.5c1-1.3,2-2.1,3-2.5c1.6-0.6,3.3-0.5,5.2,0.3s4.8,2.5,8.7,5.2c2.9,2,4.7,3.5,5.6,4.4
		c0.9,0.9,1.4,2,1.7,3.3c0.2,1,0.1,1.9-0.3,2.9c-0.4,1-1.1,2.2-2.2,3.8l-7.3,10.5l-6.2-4.4l1.7-2.4l-0.3-0.2
		c-1.2,0.7-2.5,0.9-3.8,0.6c-0.7-0.1-1.6-0.5-2.7-1.1s-2.7-1.7-4.8-3.2c-1.7-1.2-3-2.3-3.8-3.2c-0.8-0.9-1.3-1.8-1.5-2.7
		c-0.3-1.4,0.2-3,1.5-4.8c1.4-2,2.9-3.1,4.6-3.3c1.3-0.2,2.6,0.1,4.1,0.8c1.4,0.7,3.9,2.2,7.4,4.7c1.5,1,2.5,1.9,3,2.5
		s0.8,1.4,0.9,2.3l0.3,0.2l0.6-0.9c1-1.4,1.3-2.4,1-3.1c-0.3-0.7-1.4-1.7-3.4-3.1c-2.3-1.6-3.8-2.5-4.5-2.8
		C412.2,86.2,411.6,86.5,410.9,87.2z M412,94.8c-2.2-1.5-3.6-2.3-4.4-2.5c-0.9-0.1-1.5,0.1-1.9,0.8c-0.5,0.7-0.5,1.4-0.1,2.1
		c0.4,0.7,1.5,1.6,3.3,2.9c2.3,1.6,3.9,2.5,4.9,2.8c1,0.3,1.8,0.1,2.3-0.7c0.5-0.7,0.5-1.4-0.1-2.2C415.9,97.7,414.5,96.6,412,94.8z
		"/>
</g>
<g class="st4">
	<path class="st1" d="M440.2,89.8l6,5.2l-19.4,22.7l-6-5.2L440.2,89.8z"/>
</g>
<g class="st4">
	<path class="st1" d="M462.1,129.7l13.4,16c-0.4,0.3-0.5,0.5-0.6,0.6c-3.2,2.7-5.7,4.7-7.5,5.9c-2.9,1.9-5.7,1.8-8.6-0.5
		c-1.2-1-2.5-2.2-3.9-3.6c-1.4-1.4-3.3-3.7-5.9-6.8c-3.3-3.9-5.5-6.8-6.7-8.6c-1.2-1.8-1.8-3.5-2-4.9c-0.1-1,0-2,0.4-2.9
		c0.4-0.9,1.1-1.9,2.1-3c0.9-1,2.9-2.8,6-5.4c2.1-1.8,3.7-3,4.9-3.8c1.2-0.8,2.3-1.4,3.4-1.7c2.3-0.8,4.6-0.3,6.8,1.5
		c2.4,2,5.6,5.4,9.7,10.3c2.4,2.9,4.3,5.2,5.5,7c1.3,1.8,2.2,3.4,2.7,4.8c0.9,2.2,0.6,4.3-0.9,6.2c-0.8,0.9-1.9,2.1-3.5,3.4l-5.8-7
		c0.6-0.6,1-1,1.2-1.2s0.2-0.6,0.2-0.9c0-0.6-0.6-1.6-1.5-2.9c-0.9-1.2-2.3-3-4.2-5.2c-2-2.4-3.5-4.1-4.5-5c-1-0.9-1.8-1.5-2.4-1.6
		c-0.6-0.1-1.4,0.1-2.2,0.5c-0.8,0.5-2.1,1.4-3.8,2.9c-1.9,1.6-3.2,2.8-3.9,3.6c-0.7,0.8-1,1.5-1,2.1c0,0.6,0.2,1.3,0.7,1.9
		c0.4,0.7,2,2.6,4.7,5.9c2.7,3.2,4.3,5.1,4.9,5.7c0.6,0.7,1.2,1.1,1.7,1.4c0.4,0.2,0.9,0.3,1.3,0.1c0.4-0.1,1-0.5,1.7-1
		c0.1-0.1,0.3-0.3,0.6-0.5l-7.7-9.2L462.1,129.7z"/>
</g>
<g class="st4">
	<path class="st1" d="M481.5,147.7l3.9,6.4l-2.7,1.7l0.2,0.3c1.6-0.1,2.9,0.3,4,1.1c1.1,0.8,2.3,2.1,3.5,4c1.7,2.7,2.3,5,1.9,6.7
		c-0.4,1.7-2,3.4-4.8,5.1c-0.2,0.1-0.6,0.3-1.2,0.7l-3.9-6.4c1.1-0.6,1.7-1.2,2-1.7c0.5-0.9,0.3-2.3-0.8-4c-1-1.6-2.1-2.5-3.4-2.6
		c-0.6-0.1-1.3,0-2,0.3c-0.7,0.3-1.8,0.8-3.2,1.7l-7.6,4.6l-4.1-6.8L481.5,147.7z"/>
</g>
<g class="st4">
	<path class="st1" d="M502.5,185.7c1.4,3.3,2.4,5.8,2.8,7.6c0.5,1.8,0.5,3.2,0.3,4.5c-0.3,1.3-0.9,2.3-1.9,3.2
		c-1,0.8-2.7,1.8-5.1,2.8c-1.8,0.8-3.2,1.3-4.1,1.6c-0.9,0.3-1.8,0.5-2.7,0.5c-2.1,0.1-3.9-0.8-5.3-2.7c-1.2-1.6-2.7-4.4-4.4-8.5
		c-1.6-3.6-2.6-6.3-3-8c-0.4-1.7-0.4-3.2-0.1-4.4c0.3-1.2,1.1-2.2,2.1-3.1c1.1-0.8,3-1.8,5.8-3.1c1.6-0.7,2.9-1.2,3.8-1.4
		c0.9-0.2,1.8-0.3,2.6-0.3c1.7,0.1,3.2,1,4.5,2.5C499,178.5,500.6,181.4,502.5,185.7z M497,188.2c-1-2.4-1.9-4-2.7-4.6
		c-0.5-0.5-1.2-0.7-2-0.7s-1.8,0.3-3.1,0.9c-1.3,0.6-2.1,1.1-2.6,1.5s-0.7,1-0.7,1.8c0,1.1,0.5,2.9,1.5,5.3c1.2,2.8,2.3,4.4,3.2,4.9
		c0.9,0.5,2.4,0.3,4.4-0.6c1.3-0.6,2.2-1.1,2.7-1.6c0.5-0.5,0.7-1.1,0.7-1.9C498.5,192.1,498,190.4,497,188.2z"/>
</g>
<g class="st4">
	<path class="st1" d="M496.5,237.5l-1.9-7.2l3-0.8l-0.1-0.4c-1.5-0.2-2.6-1-3.5-2.1c-0.9-1.2-1.7-3-2.4-5.6
		c-0.6-2.4-0.9-4.3-0.9-5.8c0-1.5,0.4-2.8,1-4c0.7-1.2,1.6-2.1,2.7-2.7c1.1-0.6,3-1.3,5.8-2l9.3-2.5l2.1,7.6l-9.3,2.5
		c-1.5,0.4-2.5,0.8-3.1,1.1c-0.6,0.3-1,0.7-1.3,1.3c-0.3,0.5-0.4,1.2-0.4,1.9c0,0.7,0.2,1.8,0.6,3.3c0.7,2.5,1.5,4,2.5,4.7
		c0.6,0.4,1.3,0.6,2.1,0.6c0.8,0,2.1-0.3,4.1-0.8l8.2-2.2l2.1,7.6L496.5,237.5z"/>
</g>
<g class="st4">
	<path class="st1" d="M488.4,241.2l29.7-3.6l0.9,7.4l-2.8,0.3l0.1,0.4c1.4,0.5,2.4,1.4,3,2.7c0.6,1.3,1.1,3.5,1.5,6.5
		c0.3,2.7,0.4,4.8,0.2,6.4c-0.2,1.6-0.6,2.9-1.3,3.9c-0.7,0.9-1.6,1.6-2.8,2.1c-1.2,0.5-3.1,0.8-5.8,1.2c-1.8,0.2-3.2,0.3-4.2,0.3
		c-1,0-2-0.1-2.8-0.4c-1.6-0.5-2.8-1.5-3.6-3.1c-0.8-1.6-1.4-4.3-1.9-8c-0.3-2.7-0.3-4.7,0-6c0.3-1.3,1-2.4,2.2-3.3l0-0.4l-11.4,1.4
		L488.4,241.2z M514.6,253.3c-0.4-3.3-1-5.3-1.7-6c-0.8-0.7-2.3-0.9-4.5-0.6c-1.2,0.1-2.1,0.4-2.7,0.7c-0.6,0.3-1,0.7-1.2,1.3
		c-0.4,1-0.5,2.9-0.1,5.6c0.4,2.9,0.9,4.7,1.6,5.5c0.4,0.5,0.9,0.7,1.6,0.8c0.7,0.1,1.7,0.1,3.1-0.1c1.3-0.2,2.2-0.4,2.7-0.7
		c0.5-0.3,0.9-0.7,1.2-1.4C514.8,257.6,514.9,255.8,514.6,253.3z"/>
</g>
<g class="st4">
	<path class="st1" d="M60.2,414l31.2-22.5l15.4,21.4c3.1,4.2,4.9,7,5.7,8.4c1.8,3.4,2.3,6.2,1.5,8.4c-0.8,2.2-3.2,4.8-7.3,7.7
		c-3.9,2.8-6.9,4.3-9.1,4.5c-1.5,0.2-2.9-0.1-4.2-0.8c-1.3-0.7-2.8-1.9-4.4-3.7c-1.1-1.2-3-3.7-5.7-7.4L74.7,418l-7.6,5.5L60.2,414z
		 M82.5,412.3l8.6,11.9c1.6,2.2,2.6,3.5,3,3.9c0.4,0.4,0.8,0.8,1.3,1c0.6,0.3,1.2,0.4,1.9,0.2c0.7-0.2,1.5-0.7,2.7-1.5
		c1.1-0.8,1.8-1.5,2.2-2.1c0.4-0.6,0.4-1.3,0.2-2c-0.1-0.5-1.2-2.3-3.3-5.2l-8.6-11.9L82.5,412.3z"/>
</g>
<g class="st4">
	<path class="st1" d="M122.9,484.5l1.9-7.1l-19.1-17l-6.8,2.7l-10-9l41.1-15.2l13.7,12.2l-10.7,42.3L122.9,484.5z M127.4,468.3
		l4.2-15.9l-1.8-1.6l-15.3,6L127.4,468.3z"/>
</g>
<g class="st4">
	<path class="st1" d="M157.2,463.3l18.3,9.4l4.7,34.8l1.1,0.6l12.9-25.7l10.6,5.5l-17.7,34.2l-18.1-9.4l-4.8-34.8l-1.1-0.6l-13,25.6
		l-10.6-5.5L157.2,463.3z"/>
</g>
<g class="st4">
	<path class="st1" d="M231.8,494.2c8.1,1.9,13.5,3.4,16.5,4.5c4.2,1.6,6.4,4.3,6.5,8.1c0.1,2.6-0.5,6.8-1.9,12.6
		c-1.4,5.8-2.7,9.9-4,12.2c-1.8,3.3-5,4.8-9.5,4.3c-3.1-0.3-8.7-1.4-16.6-3.3c-8.1-1.9-13.7-3.4-16.6-4.6c-4.2-1.6-6.4-4.3-6.5-8.1
		c-0.1-2.6,0.6-6.9,2-12.9c1.3-5.7,2.6-9.7,3.9-11.9c1.8-3.3,5-4.8,9.5-4.3C218.1,491.2,223.7,492.3,231.8,494.2z M229.5,503.9
		c-6-1.4-9.7-2.1-11-2.1c-1.5,0-2.6,0.6-3.3,1.8c-0.7,1.2-1.6,3.6-2.4,7.4c-0.5,2.3-0.8,4-0.8,5c0,2,1.1,3.4,3.4,4.2
		c1.6,0.6,4.9,1.5,9.8,2.7c4.6,1.1,7.6,1.7,9.2,1.9c1.6,0.2,2.8,0.1,3.6-0.3c0.8-0.4,1.4-1,1.9-1.9c0.5-0.9,1-2.5,1.5-4.8
		c0.6-2.7,1-4.7,1.1-6c0.1-1.3,0-2.3-0.3-3.1c-0.4-0.9-1.3-1.7-2.6-2.2C238.1,506.1,234.8,505.2,229.5,503.9z"/>
</g>
<g class="st4">
	<path class="st1" d="M295.6,524l11.7,0c0.1,1.9,0.1,3.1,0.1,3.6c0,3-0.4,5.3-1.3,7c-1,1.9-2.9,3.2-5.7,3.8c-2.8,0.7-7.7,1-14.7,1
		c-7.3,0-12.5-0.1-15.7-0.4c-3.1-0.3-5.5-0.8-7-1.6c-1.4-0.7-2.5-1.7-3.2-3c-0.7-1.2-1.2-2.9-1.4-5.1c-0.2-1.7-0.3-4.9-0.3-9.5
		c0-4.5,0.1-7.7,0.2-9.6c0.2-2,0.5-3.5,1-4.6c1.1-2.4,3.2-4,6.5-4.8c3.3-0.7,9.9-1.1,19.8-1.1c5,0,8.6,0.1,10.8,0.3
		c2.3,0.2,4,0.6,5.4,1.3c1.7,0.8,3,2,3.7,3.7c0.7,1.6,1.1,4,1.1,7.2c0,0.2,0,0.8,0,1.9l-11.7,0c-0.1-1.3-0.1-2.1-0.2-2.6
		c-0.1-0.4-0.3-0.8-0.6-1.1c-0.5-0.4-1.6-0.7-3.4-0.9c-1.8-0.2-4.6-0.3-8.3-0.3c-3.7,0-6.2,0.1-7.6,0.3c-1.4,0.2-2.4,0.5-3,0.9
		c-0.7,0.6-1.2,1.5-1.4,2.8c-0.3,1.3-0.4,3.5-0.4,6.4c0,2.9,0.1,5,0.4,6.2c0.2,1.2,0.7,2.1,1.4,2.6c0.7,0.5,1.7,0.8,3.1,1
		c1.4,0.2,4,0.2,7.6,0.2c4.5,0,7.5-0.1,9-0.2c1.5-0.2,2.5-0.5,3-1C295.2,527.9,295.6,526.4,295.6,524z"/>
</g>
<g class="st4">
	<path class="st1" d="M308.6,499.8l41.6-9l1.9,8.8l-30.3,6.6l1.2,5.4l28.8-6.3l1.8,8.3l-28.8,6.3l1.3,6l30.6-6.6l2,9l-41.8,9.1
		L308.6,499.8z"/>
</g>
<g class="st4">
	<path class="st1" d="M405.3,508l-5.7-4.5l-23,10.8l-0.2,7.3l-12.1,5.7l2.2-43.5l16.5-7.7l34.5,26.3L405.3,508z M392.3,497.6
		l-12.9-10.1l-2.1,1l-0.5,16.3L392.3,497.6z"/>
</g>
<g class="st4">
	<path class="st1" d="M399.7,468l15.9-13l33.7,9.5l0.9-0.8l-18.4-22l9.2-7.5l24.3,29.8l-15.8,12.9l-33.8-9.4l-1,0.8l18.3,22
		l-9.2,7.5L399.7,468z"/>
</g>
<g class="st4">
	<path class="st1" d="M442.3,430.7l8.1-9.2l28.9,25.4l-8.1,9.2L442.3,430.7z"/>
</g>
<g class="st4">
	<path class="st1" d="M508.2,404.8l-7.3-0.6l-13.5,21.6l3.8,6.3l-7.1,11.4l-21.9-37.7l9.6-15.5l43.3,3.3L508.2,404.8z M491.6,403.2
		l-16.3-1.4l-1.2,2l8.5,14L491.6,403.2z"/>
</g>
</svg>
