<svg enable-background="new 0 0 113.4 113.4" viewBox="0 0 113.4 113.4" xmlns="http://www.w3.org/2000/svg"><circle cx="56.7" cy="56.7" fill="#0c0e09" r="56.7"/><path d="m38.4 107.6c-.1-7.2 2.6-13 8.8-16.7 6.5-3.9 13.1-3.8 19.5.4 5.8 3.8 8.3 9.4 8.2 16.2-8 4.4-27 4.5-36.5.1z" fill="#e73631"/><path d="m63.3 109.8c-2.4-1.6-4.6-3-6.8-4.4-2.2 1.4-4.3 2.8-6.8 4.4.8-2.6 1.4-5 2.1-7.4-1.8-1.5-3.6-2.9-5.7-4.6h7.4c1-2.4 1.9-4.8 2.9-7.5 1.1 2.7 2 5 2.9 7.4h7c0 .1.1.2.1.3-1.9 1.5-3.8 2.9-5.7 4.4 1 2.4 1.7 4.7 2.6 7.4z" fill="#ffed00"/><path d="m56.7 16.5c-22.1 0-40.1 17.9-40.1 40.1 0 16.4 9.9 30.6 24.1 36.7 1.5-1.9 3.3-3.6 5.7-5 7.1-4.3 14.4-4.1 21.3.4 2 1.3 3.7 2.9 5 4.6 14.2-6.2 24.1-20.3 24.1-36.7-.1-22.1-18-40.1-40.1-40.1z" fill="#e73631"/><g fill="#ffeb00"><path d="m8.3 65.2-5.9-3.5c.3 3.5 1 6.9 2 10.2l6.3 1.8c-1.1-2.8-1.9-5.6-2.4-8.5z"/><path d="m7.5 56.4c0-.6 0-1.2 0-1.8l-5-4.9c-.3 2.2-.4 4.5-.4 6.7 0 .9 0 1.8.1 2.7l5.7 3.6c-.3-2-.4-4.1-.4-6.3z"/><path d="m11.3 75.5-6.3-1.5c1.5 4.5 3.7 8.8 6.3 12.7l6.5-.1c-2.6-3.4-4.8-7.1-6.5-11.1z"/><path d="m19.3 88.4h-6.9c3.5 4.8 7.7 9 12.6 12.4l7.2-1.7c-4.8-2.8-9.2-6.4-12.9-10.7z"/><path d="m5.3 50-2.1-2.4s3.3-19.6 15.4-27.7c-1.6 2.2-10.4 10.1-13.3 30.1z"/><path d="m7.1 51.2 1 1.5 1.4-1.2s.6-14.3 12-28.1c-1.8 1.1-11.1 7.8-14.4 27.8z"/><path d="m12.3 48.7 2.3-2.3s1.1-8.2 10.2-19.7c-2.5 2.2-10.9 9.3-12.5 22z"/><path d="m14.4 49.1-5.2 4.7c0 .9-.1 1.8-.1 2.6 0 1.7.1 3.4.3 5.1l4.5-6.9c0-1.9.2-3.7.5-5.5z"/><path d="m13.8 58.1-4 6.2c.5 2.7 1.1 5.4 2 7.9l2.6-8.8c-.3-1.7-.5-3.5-.6-5.3z"/><path d="m20.3 79.1v7.9c3.6 4.3 8 8 12.9 10.8l-2.2-7c-4.2-3.2-7.9-7.2-10.7-11.7z"/><path d="m15.1 67-2.3 7.9c1.5 3.6 3.5 6.9 5.8 10l .1-8.5c-1.5-2.9-2.7-6-3.6-9.4z"/><path d="m104.9 65.2 5.9-3.5c-.3 3.5-1 6.9-2 10.2l-6.3 1.8c1.1-2.8 1.9-5.6 2.4-8.5z"/><path d="m105.7 56.4c0-.6 0-1.2 0-1.8l5-4.9c.3 2.2.4 4.5.4 6.7 0 .9 0 1.8-.1 2.7l-5.7 3.6c.2-2 .4-4.1.4-6.3z"/><path d="m101.8 75.5 6.3-1.5c-1.5 4.5-3.7 8.8-6.3 12.7l-6.5-.1c2.6-3.4 4.8-7.1 6.5-11.1z"/><path d="m93.8 88.4h6.9c-3.5 4.8-7.7 9-12.6 12.4l-7.2-1.7c4.9-2.8 9.2-6.4 12.9-10.7z"/><path d="m107.8 50 2.1-2.4s-3.3-19.6-15.4-27.7c1.6 2.2 10.5 10.1 13.3 30.1z"/><path d="m106 51.2-1 1.5-1.4-1.2s-.6-14.3-12-28.1c1.8 1.1 11.1 7.8 14.4 27.8z"/><path d="m100.9 48.7-2.3-2.3s-1.1-8.2-10.2-19.7c2.5 2.2 10.8 9.3 12.5 22z"/><path d="m98.7 49.1 5.3 4.7c0 .9.1 1.8.1 2.6 0 1.7-.1 3.4-.3 5.1l-4.5-6.9c-.1-1.9-.3-3.7-.6-5.5z"/><path d="m99.3 58.1 4.1 6.2c-.5 2.7-1.1 5.4-2 7.9l-2.6-8.8c.3-1.7.4-3.5.5-5.3z"/><path d="m92.9 79.1v7.9c-3.6 4.3-8 8-12.9 10.8l2.2-7c4.2-3.2 7.8-7.2 10.7-11.7z"/><path d="m98 67 2.3 7.9c-1.5 3.6-3.5 6.9-5.8 10l-.1-8.5c1.5-2.9 2.8-6 3.6-9.4z"/><path d="m36.6 13.6-.4.9c-.5-.3-.9-.6-1.3-.8l2.4 5.1-.9.4-2.2-4.8c0 1.1-.1 2-.3 2.6l-.9-.8c.3-1 .4-2.1.3-3.5l-1.5.7-.4-.9 1.6-.7-.8-1.8.9-.4.8 1.8 1.4-.6.4.9-1.4.6.1.2c.8.3 1.5.7 2.2 1.1zm7.2 1.2-.2 1c-.8-.1-1.6-.2-2.4-.6-.4.9-.8 1.7-1.3 2.3l-.9-.5c.5-.7 1-1.4 1.3-2.2-1-.6-1.9-1.4-2.6-2.5.8 2.2 1 4.2.7 5.9l-1-.3c.2-1.2.2-2.4-.1-3.7s-.9-2.8-1.7-4.6l-.9.4-.4-.9 5-2.3c.3 1.2.6 2.3.8 3.3l1-.5c.6 1.7.8 3.2.5 4.7.6.3 1.4.5 2.2.5zm-5.2-6.5-2.1 1c .4.8.7 1.5.9 2.1l1.7-.8c-.1-.7-.3-1.4-.5-2.3zm1.8 2.7-1.7.8c.5.8 1.2 1.4 1.9 2 .1-.8.1-1.7-.2-2.8z"/><path d="m55.4 13.4-10.1 1.6-.2-1 4.1-.6-1.4-8.8 1.1-.2.5 3.5 4.4-.7.2 1-4.3.6.7 4.3 4.9-.8z"/><path d="m67.4 12.2c-.2 1-.4 1.6-.6 1.9s-.4.4-.6.5-.8 0-1.6-.1c-.6-.1-1-.1-1.5-.2-.4-.1-.7-.2-.8-.4s-.2-.5-.1-.8l.5-3.9h-.2c-.9 2.4-2.6 4-5.1 4.6l-.6-.9c2.3-.7 3.9-2 4.6-3.9l-4-.5.1-1 4.2.5c.2-.6.4-1.5.6-2.7l-4-.5.1-1 9.5 1.2-.1 1-4.3-.6c-.1.9-.3 1.8-.6 2.7l4.8.6-.1 1-3.8-.4-.5 3.8c0 .1 0 .2.1.2s.5.1 1.1.2c.7.1 1.1.1 1.2.1s.2-.1.2-.2.2-.3.3-.7.2-.7.2-1z"/><path d="m75.6 11.3-1.8-.8-.7 1.7 1.3.6-1.7 4-.9-.4.2-.4-1.9-.8-.3.7-1-.4 1.9-4.4 1.5.6.7-1.7-2-.9.4-.9 2 .9.5-1.2c-.5-.1-1.1-.3-1.7-.6l.1-1c1.5.6 2.9 1 4.2 1.2l.1.9c-.4 0-1-.1-1.8-.3l-.6 1.3 1.7.8zm-3.3 3.8.8-1.9-1.9-.8-.8 1.9zm5.8 3.7-1 .5c-.6-1-1.1-1.8-1.3-2.6-.8.4-1.7.6-2.7.8l-.2-1c1-.1 1.9-.4 2.7-.8-.1-1 0-1.9.2-2.8l1 .1c-.2.6-.3 1.3-.3 2.1.9-.7 1.7-1.8 2.4-3.3l-1.5-.7c-.8.9-1.5 1.6-2.2 2l-.4-.9c1.1-.9 2.3-2.1 3.4-3.7l.8.6c-.2.3-.5.7-1 1.3l2.9 1.3-.4.9-.8-.3c-1 1.9-2 3.2-3.1 4 .3.6.7 1.5 1.5 2.5z"/></g><path d="m62.3 24.7c12.7 29 1.8 48.9-1.9 54.3 2.3.6 4.4 1.5 6.1 2.7 10.4-9.1 15-23.8 10.5-37.8-2.7-8.2-8-14.8-14.7-19.2z" fill="#ffed00"/><path d="m81.4 44.3c3 23.6-9.1 35.6-12.9 38.8 1.6.9 2.8 2 3.8 3.2 9.4-4.4 15.8-14 15.6-25.1-.1-6.4-2.6-12.3-6.5-16.9z" fill="#ffed00"/><path d="m51.1 24.7c-12.7 29-1.8 48.9 1.9 54.3-2.3.6-4.4 1.5-6.1 2.7-10.4-9.1-15-23.8-10.5-37.8 2.7-8.2 8-14.8 14.7-19.2z" fill="#ffed00"/><path d="m32 44.3c-3 23.6 9.1 35.6 12.9 38.8-1.6.9-2.8 2-3.8 3.2-9.4-4.4-15.8-14-15.6-25.1.2-6.4 2.6-12.3 6.5-16.9z" fill="#ffed00"/><path d="m62.3 24.7s-5.4-3.4-11.1 0c-6.1 8.8-10.3 26.2-10.3 26.2l6 23.6 6.2 4.4s3-1.6 7.3 0c10.9-9.8 12.1-17.6 12.1-17.6l-4.4-28.2z" fill="#ffed00"/><path d="m61.3 29.6c10.5 24.1 1.5 40.5-1.6 45 1.9.5 3.6 1.2 5.1 2.2 8.6-7.6 12.4-19.8 8.7-31.4-2.2-6.7-6.6-12.2-12.2-15.8z" fill="#e73631"/><path d="m52.1 29.6c-10.5 24.1-1.5 40.5 1.6 45-1.9.5-3.6 1.2-5.1 2.2-8.6-7.6-12.4-19.8-8.7-31.4 2.2-6.7 6.6-12.2 12.2-15.8z" fill="#e73631"/></svg>