<?xml version="1.0" encoding="utf-8"?>
<!-- Generator: Adobe Illustrator 23.0.1, SVG Export Plug-In . SVG Version: 6.00 Build 0)  -->
<svg version="1.1" id="Capa_1" xmlns="http://www.w3.org/2000/svg" xmlns:xlink="http://www.w3.org/1999/xlink" x="0px" y="0px"
	 viewBox="0 0 538.6 538.6" style="enable-background:new 0 0 538.6 538.6;" xml:space="preserve">
<style type="text/css">
	.st0{fill:#F9E400;}
	.st1{fill:#413273;}
	.st2{fill:#FAE400;}
</style>
<circle class="st0" cx="269.3" cy="269.3" r="269.3"/>
<circle class="st1" cx="269.3" cy="269.3" r="260"/>
<g>
	<path class="st2" d="M512.9,254c-0.9-3-1.8-6-2.6-9c-1.4-5.1-4.1-9.7-5.2-15c-0.3-1.4-1.7-2.3-1.9-3.8c-0.2-1.3-0.5-2.7-1.7-3.5
		c-0.2-0.1-0.1-0.5-0.2-0.7c-0.7-1.7-0.8-3.4-2.1-5c-1.1-1.3-0.6-3.6-2.3-4.8c-0.1-2.3-1.7-4-2.6-5.9c-1.6-3.4-2.9-7-5-10.1
		c-1-1.5-1.3-3.3-2.1-4.9s-2.1-3-2.3-4.8s-2.2-2.9-2.2-4.9c-2.4-3.3-4.5-6.8-7.9-9.2c-2.3-1.6-4.7-3.1-7.1-4.5
		c-3.5-2-7.3-2.9-11-4.1c-4.1-1.2-8.4-1.9-12.7-2.1c-4.6-0.4-9.3-0.5-13.9-0.4c-4.3,0.1-8.6,0.8-13,0.8c-0.2,0-0.4,0.2-0.6,0.3
		c-0.6,1.8,1.1,2.6,1.8,3.7c4.5,6.7,9.5,13.1,13.9,19.9c2.3,3.6,4.5,7.4,6.8,11s4.4,7.4,6.8,11c1.4,2.1,2.4,4.6,3.7,6.8
		c1.8,2.9,2.8,6.2,4.9,8.9c0.2,2.5,2.3,4.3,2.8,6.7c0.3,1.8,1.9,3,2.2,4.9c0.3,1.7,1,3.2,1.9,4.6c1.1,1.7,1.5,4,1.9,6s2,3.8,1,6
		c-0.1,0.3,0.1,0.7,0.3,1.1c1.3,3.2,0.7,6.6,0.2,9.8c-0.7,4.5-3.5,7.5-7.9,8.8c-9,2.6-18,5.2-27,7.9c-2,0.6-4.1,0-6.1,0.9
		s-4.1,1.8-6.1,1.7c-2.6,0.1-5.1,0.6-7.5,1.6c-1.9,0.7-3.9,0-5.7,0.8s-3.6,1.6-5.4,1.5c-2.2,0-4.4,0.4-6.4,1.3
		c-1.8,0.7-3.6-0.2-5.4,0.6c-1.5,0.8-3.2,1.3-5,1.4c-2.7-0.1-5,1.3-7.5,1.4c-3.5,0.2-6.7,1.8-10,2.1s-6.4,1.8-9.6,2.1
		c-6.2,0.6-11.9,3-17.9,4.5c-1.4,0.4-3.2-0.7-4.1,0.5s-2.1,1.2-3.2,1.6c-1.5,0.5-3.1,0.9-4.7,1.4c-1.5,4.4-2.5,9-2.8,13.6l29.1,5.3
		l4.2-1.2c43.2-12.5,86.4-25,129.6-37.6c5.3-1.5,9.7-4.6,14.1-7.9c5.2-3.9,8.6-8.9,11.4-14.5C511.7,258.4,511.7,256,512.9,254
		L512.9,254z"/>
	<path class="st2" d="M292.7,320.3c0.5,1.9,1,3.8,1.4,5.7c0.8,3.2,2.4,6.2,2.9,9.5c0.1,0.9,1,1.5,1.1,2.4c0,0.9,0.3,1.7,1,2.2
		c0.1,0.1,0.1,0.3,0.1,0.4c0.2,1.1,0.6,2.2,1.2,3.1c0.6,0.8,0.3,2.3,1.3,3c0,1.5,1,2.5,1.5,3.8c0.8,2.2,1.8,4.4,2.9,6.4
		c0.5,1,0.9,2,1.2,3.1c0.6,0.9,1.1,2,1.3,3.1c0.1,1.2,1.3,1.9,1.3,3.1c1.4,2.1,2.6,4.3,4.7,5.9c1.4,1.1,2.9,2,4.4,2.9
		c4.6,2.4,9.5,3.9,14.7,4.4c2.9,0.3,5.8,0.5,8.7,0.5c2.7,0,5.4-0.3,8.1-0.2c0.1,0,0.3-0.1,0.4-0.2c0.4-1.1-0.6-1.7-1-2.3
		c-2.6-4.3-5.6-8.4-8.2-12.8c-1.4-2.3-2.6-4.7-4-7s-2.6-4.7-4-7c-0.8-1.4-1.4-2.9-2.2-4.3c-1-1.8-1.6-3.9-2.9-5.7
		c0-1.6-1.4-2.7-1.6-4.2c-0.2-1.1-1.1-1.9-1.3-3.1c-0.1-1-0.5-2-1.1-2.9c-0.6-1.2-0.9-2.5-1-3.8c-0.2-1.3-1.1-2.4-0.5-3.8
		c0.1-0.2-0.1-0.5-0.2-0.7c-0.8-2-0.3-4.1,0.1-6.1c0.4-2.7,2.5-4.8,5.1-5.3c5.7-1.5,11.4-2.8,17-4.3c1.3-0.3,2.5,0.1,3.8-0.4
		c1.2-0.6,2.5-0.9,3.8-0.9c1.6,0,3.2-0.3,4.7-0.8c1.2-0.4,2.4,0.1,3.6-0.4c1.1-0.5,2.2-0.8,3.4-0.8c1.4,0.1,2.7-0.1,4-0.6
		c1.1-0.4,2.3,0.2,3.4-0.3c1-0.5,2.1-0.8,3.2-0.8c1.7,0.2,3.1-0.7,4.7-0.7c2.2,0,4.2-1,6.3-1.1s4-1,6-1.1c3.9-0.2,7.5-1.6,11.3-2.4
		c0.9-0.2,2,0.5,2.6-0.2s1.3-0.7,2-0.9c1-0.3,2-0.5,3-0.8c1.1-2.7,1.8-5.5,2.1-8.4l-18-4l-2.6,0.7c-27.2,6.9-54.5,13.7-81.7,20.6
		c-3.3,1-6.3,2.5-9,4.6c-3.1,2.3-5.7,5.3-7.5,8.8C293.6,317.6,293.5,319.1,292.7,320.3L292.7,320.3z"/>
	<path class="st2" d="M25.7,254c0.9-3,1.8-6,2.6-9c1.4-5.1,4.1-9.7,5.2-15c0.3-1.4,1.7-2.3,1.9-3.8c0.2-1.3,0.5-2.7,1.7-3.5
		c0.2-0.1,0.1-0.5,0.2-0.7c0.7-1.7,0.8-3.4,2.1-5c1.1-1.3,0.6-3.6,2.3-4.8c0.1-2.3,1.7-4,2.6-5.9c1.7-3.4,2.9-7,5-10.1
		c1-1.5,1.3-3.3,2.1-4.9s2.1-3,2.3-4.8s2.2-2.9,2.2-4.9c2.4-3.3,4.5-6.8,7.9-9.2c2.3-1.6,4.7-3.1,7.2-4.5c3.5-2,7.3-2.9,11-4.1
		c4.1-1.2,8.4-1.9,12.7-2.1c4.6-0.4,9.3-0.5,13.9-0.4c4.3,0.1,8.6,0.8,13,0.8c0.2,0,0.4,0.2,0.6,0.3c0.6,1.8-1.1,2.6-1.8,3.7
		c-4.5,6.7-9.5,13.1-13.8,19.9c-2.3,3.6-4.5,7.4-6.8,11s-4.4,7.4-6.8,11c-1.4,2.1-2.3,4.6-3.7,6.8c-1.8,2.9-2.8,6.2-4.9,8.9
		c-0.2,2.5-2.3,4.3-2.8,6.7c-0.3,1.8-1.9,3-2.2,4.9c-0.3,1.7-1,3.2-1.9,4.6c-1.1,1.7-1.4,4-1.8,6s-2,3.8-1,6
		c0.1,0.3-0.1,0.7-0.3,1.1c-1.3,3.2-0.7,6.6-0.2,9.8c0.7,4.5,3.5,7.5,7.9,8.8c9,2.6,18,5.2,27,7.9c2,0.6,4.1,0,6.1,0.9
		s4.1,1.8,6.1,1.7c2.6,0.1,5.1,0.6,7.4,1.6c1.9,0.7,3.9,0,5.7,0.8s3.6,1.6,5.4,1.5c2.2,0,4.4,0.4,6.4,1.3c1.8,0.7,3.6-0.2,5.4,0.6
		c1.5,0.8,3.2,1.3,5,1.4c2.7-0.1,5,1.3,7.5,1.4c3.5,0.2,6.7,1.8,10,2.1s6.4,1.8,9.6,2.1c6.2,0.6,11.9,3,17.9,4.5
		c1.4,0.4,3.2-0.7,4.1,0.5s2.1,1.2,3.2,1.6c1.5,0.5,3.1,0.9,4.7,1.4c1.5,4.4,2.5,9,2.8,13.6l-29.1,5.3l-4.2-1.2
		c-43.3-12.5-86.5-25.1-129.7-37.6c-5.3-1.5-9.7-4.6-14.1-7.9c-5.2-3.9-8.6-8.9-11.5-14.5C26.9,258.4,26.8,256,25.7,254z"/>
	<path class="st2" d="M245.8,320.3c-0.5,1.9-1,3.8-1.4,5.7c-0.8,3.2-2.4,6.2-2.9,9.5c-0.1,0.9-1,1.5-1.1,2.4c0,0.9-0.3,1.7-1,2.2
		c-0.1,0.1-0.1,0.3-0.1,0.4c-0.2,1.1-0.6,2.2-1.2,3.1c-0.6,0.8-0.3,2.3-1.3,3c0,1.5-1,2.5-1.5,3.8c-0.8,2.2-1.8,4.4-2.9,6.4
		c-0.5,1-0.9,2-1.2,3.1c-0.6,0.9-1.1,2-1.3,3.1c-0.1,1.2-1.3,1.9-1.3,3.1c-1.4,2.1-2.6,4.3-4.7,5.9c-1.4,1.1-2.9,2-4.4,2.9
		c-4.5,2.4-9.5,3.9-14.6,4.4c-2.9,0.3-5.8,0.5-8.7,0.5c-2.7,0-5.4-0.3-8.1-0.2c-0.1,0-0.3-0.1-0.4-0.2c-0.4-1.1,0.6-1.7,1-2.3
		c2.6-4.3,5.6-8.4,8.2-12.8c1.4-2.3,2.6-4.7,4-7s2.6-4.7,4-7c0.8-1.4,1.4-2.9,2.2-4.3c1-1.8,1.6-3.9,2.9-5.7c0-1.6,1.4-2.7,1.6-4.2
		c0.2-1.1,1.1-1.9,1.3-3.1c0.2-1,0.5-2,1.1-2.9c0.6-1.2,0.9-2.5,1-3.8c0.2-1.3,1.1-2.4,0.5-3.8c-0.1-0.2,0.1-0.5,0.2-0.7
		c0.8-2,0.3-4.1-0.1-6.1c-0.4-2.7-2.5-4.8-5.1-5.3c-5.7-1.5-11.4-2.8-17-4.3c-1.3-0.3-2.6,0.1-3.8-0.4c-1.2-0.6-2.5-0.9-3.8-0.9
		c-1.6,0-3.2-0.3-4.7-0.8c-1.2-0.4-2.4,0.1-3.6-0.4c-1.1-0.5-2.2-0.8-3.4-0.8c-1.4,0.1-2.7-0.1-4-0.6c-1.1-0.4-2.3,0.2-3.4-0.3
		c-1-0.5-2.1-0.8-3.2-0.8c-1.7,0.2-3.1-0.7-4.7-0.7c-2.2,0-4.2-1-6.3-1.1s-4-1-6.1-1.1c-3.9-0.2-7.5-1.6-11.3-2.4
		c-0.9-0.2-2,0.5-2.6-0.2s-1.3-0.7-2-0.9c-1-0.3-2-0.5-3-0.8c-1.1-2.7-1.8-5.5-2.1-8.4l18-4l2.6,0.7c27.2,6.9,54.5,13.7,81.7,20.6
		c3.2,1,6.3,2.5,8.9,4.6c3.1,2.3,5.7,5.3,7.5,8.8C245,317.6,245.1,319.1,245.8,320.3L245.8,320.3z"/>
	<path class="st2" d="M133.3,258.6c0.5-1.9,1-3.8,1.5-5.6c0.8-3.2,2.4-6.1,3-9.4c0.2-0.9,1-1.5,1.1-2.4c0-0.8,0.4-1.6,1-2.2
		c0.1-0.1,0.1-0.3,0.1-0.4c0.2-1.1,0.7-2.2,1.3-3.1c0.7-0.8,0.4-2.3,1.4-3c0-1.4,1-2.5,1.6-3.7c0.8-2.2,1.9-4.3,3-6.4
		c0.5-1,0.9-2,1.3-3.1c0.5-1,1.3-1.9,1.4-3s1.4-1.9,1.3-3.1c1.4-2.1,2.7-4.3,4.8-5.9c1.4-1,2.9-2,4.4-2.9c4.6-2.3,9.6-3.7,14.7-4.2
		c2.9-0.3,5.8-0.4,8.7-0.4c2.7,0,5.4,0.4,8.1,0.3c0.1,0,0.3,0.1,0.4,0.2c0.4,1.1-0.7,1.6-1.1,2.3c-2.7,4.3-5.7,8.3-8.4,12.6
		c-1.4,2.3-2.7,4.7-4.1,7s-2.6,4.7-4.1,6.9c-0.9,1.3-1.4,2.9-2.2,4.3c-1.1,1.8-1.7,3.9-3,5.6c-0.1,1.6-1.4,2.7-1.6,4.2
		c-0.2,1.1-1.2,1.9-1.4,3.1c-0.2,1-0.5,2-1.1,2.9c-0.6,1.2-1,2.5-1.1,3.8c-0.2,1.3-1.2,2.4-0.6,3.8c0.1,0.2-0.1,0.5-0.2,0.7
		c-0.8,2-0.4,4.1,0,6.1c0.4,2.7,2.4,4.8,5,5.4c5.6,1.5,11.3,3,16.9,4.6c1.3,0.4,2.6,0,3.8,0.5c1.2,0.6,2.5,0.9,3.8,1
		c1.6,0,3.2,0.3,4.7,0.9c1.2,0.4,2.4,0,3.6,0.4c1.1,0.5,2.2,0.8,3.4,0.9c1.4-0.1,2.7,0.2,4,0.7c1.1,0.4,2.3-0.1,3.4,0.3
		c1,0.5,2,0.8,3.1,0.8c1.7-0.1,3.1,0.8,4.7,0.8c2.2,0.1,4.2,1,6.3,1.2s4,1,6,1.2c3.9,0.3,7.5,1.7,11.2,2.6c0.9,0.2,2-0.5,2.6,0.3
		s1.3,0.7,2,1c1,0.3,2,0.5,3,0.8c1,2.7,1.7,5.6,1.9,8.5l-17.9,3.5l-2.6-0.7c-27.1-7.3-54.2-14.6-81.4-21.9c-3.2-1-6.2-2.6-8.9-4.8
		c-3.1-2.4-5.6-5.4-7.3-8.9C134.2,261.3,134.1,259.8,133.3,258.6L133.3,258.6z"/>
	<path class="st2" d="M404.8,258.6c-0.5-1.9-1-3.8-1.5-5.6c-0.8-3.2-2.5-6.1-3-9.4c-0.1-0.9-1-1.5-1.1-2.4c0-0.8-0.4-1.6-1-2.2
		c-0.1-0.1-0.1-0.3-0.1-0.4c-0.2-1.1-0.7-2.2-1.3-3.1c-0.7-0.8-0.4-2.3-1.4-3c0-1.4-1-2.5-1.6-3.7c-0.9-2.2-1.9-4.3-3-6.4
		c-0.5-1-0.9-2-1.3-3.1c-0.5-1-1.3-1.9-1.4-3s-1.3-1.9-1.3-3.1c-1.4-2.1-2.7-4.3-4.8-5.9c-1.4-1-2.9-2-4.4-2.9
		c-2.2-1.1-4.5-2-6.8-2.7c-2.6-0.8-5.2-1.3-7.9-1.5c-2.9-0.3-5.8-0.4-8.7-0.4c-2.7,0-5.4,0.4-8.1,0.3c-0.1,0-0.3,0.1-0.4,0.2
		c-0.4,1.1,0.7,1.6,1.1,2.3c2.7,4.3,5.8,8.3,8.4,12.6c1.4,2.3,2.7,4.7,4.1,7s2.6,4.7,4.1,6.9c0.9,1.3,1.4,2.9,2.2,4.3
		c1.1,1.8,1.7,3.9,3,5.6c0.1,1.6,1.4,2.7,1.6,4.2c0.2,1.1,1.2,1.9,1.3,3.1c0.2,1,0.6,2,1.1,2.9c0.6,1.2,1,2.5,1.1,3.8
		c0.2,1.3,1.2,2.4,0.6,3.8c-0.1,0.2,0.1,0.5,0.2,0.7c0.8,2,0.4,4.1,0,6.1c-0.4,2.7-2.4,4.8-5,5.4c-5.6,1.5-11.3,3-16.9,4.6
		c-1.3,0.4-2.5,0-3.8,0.5c-1.2,0.6-2.5,0.9-3.8,1c-1.6,0-3.2,0.3-4.7,0.9c-1.2,0.4-2.4,0-3.6,0.4c-1.1,0.5-2.2,0.8-3.4,0.9
		c-1.4-0.1-2.7,0.2-4,0.7c-1.1,0.4-2.2-0.1-3.4,0.3c-1,0.5-2.1,0.8-3.1,0.8c-1.7-0.1-3.1,0.8-4.7,0.8c-2.4-0.1-4.4,0.9-6.4,1
		s-4,1-6,1.2c-3.9,0.3-7.5,1.7-11.2,2.6c-0.9,0.2-2-0.5-2.6,0.3s-1.3,0.7-2,1c-1,0.3-2,0.5-3,0.8c-1,2.7-1.7,5.6-1.9,8.5l18.1,3.7
		l2.6-0.7c27.1-7.3,54.2-14.6,81.4-21.9c3.2-1,6.2-2.6,8.9-4.8c3.1-2.4,5.6-5.4,7.3-8.9C404,261.3,404.1,259.8,404.8,258.6
		L404.8,258.6z"/>
</g>
<path class="st0" d="M237.4,372.2L268.5,264l1.2-0.3c10.8,36.1,21.5,72.2,32.3,108.4l-32.2,53.5L237.4,372.2z"/>
<path class="st0" d="M267.4,281.2c0.9,3.2,3.2,3.2,4.1,0l11.6-40c0.4-1.3,0.4-2.7,0.3-4c-4.5-31.6-9-63.2-13.5-94.7h-1.2
	c-4.4,31.5-8.7,62.9-13.1,94.7c-0.2,1.3-0.1,2.7,0.3,4C259.6,254.5,263.5,267.7,267.4,281.2z"/>
</svg>
