<svg enable-background="new 0 0 113.4 113.4" viewBox="0 0 113.4 113.4" xmlns="http://www.w3.org/2000/svg"><path d="m113.4 56.7c0 31.3-25.3 56.7-56.7 56.7s-56.7-25.4-56.7-56.8c0-31.3 25.4-56.6 56.8-56.6 31.3 0 56.6 25.4 56.6 56.7zm-56.7-53.4c-29.4 0-53.4 23.9-53.5 53.3 0 29.5 23.9 53.5 53.4 53.5s53.5-24 53.5-53.5c0-29.3-24-53.3-53.4-53.3z" fill="#221b18"/><path d="m56.7 3.3c29.4 0 53.4 24 53.4 53.4 0 29.5-24 53.5-53.5 53.5s-53.4-24-53.4-53.5c.1-29.5 24.1-53.4 53.5-53.4zm-11.5 102.1 2.7-5.4c3-6.2 5.1-12.7 4.9-19.7-.1-2-.4-3.9-.7-5.8-1.1-7.1-2.6-14.2-3.8-21.2-1.5-8.5-3.9-16.9-4.3-25.6-.2-4.5-.1-9.1.3-13.6.2-2 .4-4 .6-6.3-8 11.4-12.1 23.4-8.4 37.3-.8 0-1.2 0-1.6 0-3.9 0-7.8 0-11.8 0-1.4 0-2.6.4-3.4 1.5-.9 1.2-1.1 2.5-.4 3.9.7 1.6 2 2.3 3.7 2.3h13.5c.4 0 .9-.1 1.4.2.3.9.6 1.8.6 2.9-.5 0-1 0-1.4 0-4.6 0-9.3 0-13.9 0-1.4 0-2.6.4-3.5 1.6s-1 2.5-.4 3.9c.7 1.6 2.1 2.2 3.7 2.2h15.6 1.4c.2 1.1.4 2.2.6 3.3-.5 0-1 0-1.4 0-5.6 0-11.2 0-16.8 0-1.9 0-3.5 1.2-3.8 3-.5 2.5 1.3 4.5 4 4.5h18.1c.4 0 .9-.1 1.3.1 2.4 10.1 3.5 20.4 3.2 30.9zm24.9-97.3c-.5 0-.5.3-.6.5-2.1 3-3.8 6.2-5.4 9.5-2 4.5-3.6 9.1-3.8 14.1-.2 4.7.6 9.4 1.3 14 .6 3.6 1.7 7.1 2.4 10.6 1.4 7 2.7 14 4.1 21.1 1.1 5.4 1.8 10.8 2.1 16.3.2 3.3.2 6.7 0 10 0 .4 0 .8.1 1.4 5.3-9.9 9.5-19.8 6.9-31.3h1.4 11.5c2.9 0 4.6-1.4 4.7-3.7 0-2.3-1.8-3.8-4.7-3.8-4.6 0-9.3 0-14 0-.4-1.1-.6-2.1-.6-3.3h1.4 13.4c1.2 0 2.3-.3 3.2-1.1 1.1-1.1 1.4-2.5.9-4-.6-1.6-2-2.5-3.8-2.5-5.1 0-10.2 0-15.3 0-.4 0-.9.1-1.4-.2-.2-.9-.3-1.9-.5-2.9h2.2 14.9c2.4 0 4.1-1.6 4.1-3.8s-1.6-3.8-4-3.9c-.5 0-.9 0-1.4 0-5.8 0-11.5 0-17.2 0-3.4-12.2-3.6-24.5-1.9-37z" fill="#ffed00"/><path d="m45.2 105.4c.3-10.5-.8-20.8-3.1-31-.4-.2-.8-.1-1.3-.1-6 0-12.1 0-18.1 0-2.8 0-4.5-2-4-4.5.3-1.8 1.8-3 3.8-3h16.8 1.4c-.2-1.1-.4-2.2-.6-3.3-.5 0-1 0-1.4 0-5.2 0-10.4 0-15.6 0-1.7 0-3-.7-3.7-2.2-.6-1.3-.5-2.7.4-3.9s2.1-1.6 3.5-1.6h13.9 1.4c0-1.1-.4-2-.6-2.9-.5-.3-.9-.2-1.4-.2-4.5 0-9 0-13.5 0-1.7 0-3-.7-3.7-2.3-.6-1.4-.5-2.7.4-3.9.8-1.1 2-1.5 3.4-1.5h11.8 1.6c-3.9-13.7.2-25.7 8.2-37.2-.2 2.3-.4 4.3-.6 6.3-.4 4.5-.5 9.1-.3 13.6.4 8.7 2.8 17.1 4.3 25.6 1.3 7.1 2.7 14.1 3.8 21.2.3 1.9.6 3.8.7 5.8.2 7-1.9 13.5-4.9 19.7-.7 1.8-1.7 3.6-2.6 5.4z" fill="#1e1816"/><path d="m70.1 8.1c-1.7 12.4-1.5 24.7 1.9 37h17.2 1.4c2.4.1 4 1.7 4 3.9s-1.7 3.8-4.1 3.8c-5 0-9.9 0-14.9 0-.7 0-1.4 0-2.2 0 .2 1 .3 2 .5 2.9.5.3.9.2 1.4.2h15.3c1.8 0 3.2.9 3.8 2.5.5 1.5.2 2.9-.9 4-.9.9-2 1.2-3.2 1.1-4.5 0-8.9 0-13.4 0-.4 0-.8 0-1.4 0 0 1.2.2 2.2.6 3.3h14c3 0 4.8 1.4 4.7 3.8 0 2.3-1.8 3.7-4.7 3.7-3.8 0-7.7 0-11.5 0-.4 0-.8 0-1.4 0 2.6 11.5-1.6 21.4-6.9 31.3 0-.6-.1-1-.1-1.4.2-3.3.2-6.7 0-10-.3-5.5-1-10.9-2.1-16.3-1.4-7-2.8-14-4.1-21.1-.7-3.6-1.8-7-2.4-10.6-.8-4.6-1.5-9.3-1.3-14 .2-4.9 1.7-9.6 3.8-14.1 1.5-3.3 3.3-6.5 5.4-9.5.1-.1.1-.4.6-.5z" fill="#1e1816"/></svg>