<?xml version="1.0" encoding="utf-8"?>
<!-- Generator: Adobe Illustrator 23.0.1, SVG Export Plug-In . SVG Version: 6.00 Build 0)  -->
<svg version="1.1" id="Capa_1" xmlns="http://www.w3.org/2000/svg" xmlns:xlink="http://www.w3.org/1999/xlink" x="0px" y="0px"
	 viewBox="0 0 538.6 538.6" style="enable-background:new 0 0 538.6 538.6;" xml:space="preserve">
<style type="text/css">
	.st0{fill:#F9E400;}
	.st1{fill:#413273;}
	.st2{fill:#FAE400;}
</style>
<circle class="st0" cx="269.3" cy="269.3" r="269.3"/>
<circle class="st1" cx="269.3" cy="269.3" r="260"/>
<g>
	<path class="st2" d="M522.9,274.3c-0.7-2.4-1.4-4.8-2.1-7.3c-1.1-4.1-3.3-7.9-4.2-12.1c-0.2-1.1-1.3-1.9-1.5-3.1
		c0-1.1-0.5-2.1-1.4-2.8c-0.1-0.1-0.1-0.4-0.2-0.6c-0.5-1.4-0.7-2.8-1.7-4c-0.9-1.1-0.5-2.9-1.8-3.9c-0.1-1.9-1.4-3.2-2.1-4.8
		c-1.3-2.7-2.3-5.6-4.1-8.2c-0.7-1.3-1.2-2.6-1.7-4c-0.6-1.3-1.7-2.4-1.9-3.9s-1.8-2.4-1.8-3.9c-1.9-2.7-3.6-5.5-6.4-7.4
		c-1.9-1.3-3.8-2.5-5.8-3.6c-2.8-1.6-5.9-2.4-8.9-3.3c-3.3-1-6.8-1.5-10.2-1.7c-3.7-0.3-7.5-0.4-11.2-0.3c-3.5,0.1-5.1,1.2-8.6,1.2
		c-0.2,0,0.8,2.2,0.6,2.3c-0.5,1.4-2.1-0.5-1.5,0.4c3.6,5.4,7.6,10.6,11.2,16.1c1.9,2.9,3.6,6,5.5,8.9s3.5,6,5.5,8.9
		c1.1,1.7,1.9,3.7,3,5.5c1.4,2.3,2.3,5,4,7.2c0.1,2,1.9,3.4,2.2,5.4c0.3,1.5,1.6,2.4,1.8,4c0.2,1.3,0.8,2.6,1.5,3.7
		c0.8,1.5,1.3,3.2,1.5,4.9c0.3,1.6,1.6,3.1,0.9,4.9c-0.1,0.2,0.1,0.6,0.2,0.9c1.1,2.6,0.6,5.3,0.2,7.9c-0.4,3.5-3,6.3-6.4,7.1
		c-7.3,2.1-14.5,4.2-21.8,6.4c-1.6,0.5-3.3,0-4.9,0.7c-1.5,0.8-3.2,1.3-4.9,1.4c-2.1,0-4.1,0.5-6,1.3c-1.5,0.5-3.1,0-4.6,0.6
		s-2.9,1.3-4.3,1.2c-1.8,0-3.5,0.3-5.1,1c-1.5,0.5-2.9-0.1-4.3,0.5c-1.2,0.7-2.6,1.1-4,1.1c-2.2-0.1-4,1-6,1.1
		c-2.8,0.1-5.4,1.5-8.1,1.7s-5.1,1.4-7.8,1.7c-5,0.5-9.6,2.4-14.4,3.6c-1.1,0.3-2.6-0.6-3.4,0.4s-1.7,1-2.6,1.3
		c-1.2,0.4-2.5,0.8-3.8,1.1c-1.2,3.5-2,7.2-2.3,11l23.5,4.3l3.4-1c34.9-10.1,69.7-20.3,104.6-30.4c4.2-1.2,7.8-3.7,11.4-6.4
		c4.2-3.1,6.9-7.2,9.2-11.7C521.9,277.8,522,275.8,522.9,274.3L522.9,274.3z"/>
	<path class="st2" d="M310.6,356.6c1.5-0.5,3-0.9,4.5-1.3c2.6-0.7,4.9-2.1,7.5-2.6c0.7-0.1,1.1-0.8,1.9-1c0.7,0,1.3-0.3,1.8-0.9
		c0-0.1,0.2-0.1,0.4-0.1c0.9-0.2,1.7-0.6,2.5-1.1c0.7-0.5,1.8-0.3,2.4-1.2c1.2,0,2-0.9,3-1.3c1.8-0.7,3.5-1.6,5.1-2.6
		c0.8-0.4,1.6-0.8,2.5-1.1c0.7-0.5,1.6-0.9,2.4-1.2c1-0.1,1.5-1.1,2.5-1.1c1.8-1.1,3.3-2.4,4.6-4c0.8-1.2,1.5-2.4,2.2-3.6
		c0.9-1.8,1.5-3.6,2-5.6c0.6-2.1,0.9-4.2,1-6.4c0.2-2.3,0.2-4.7,0.2-7c-0.1-2.2-0.4-4.3-0.4-6.5c0-0.1-0.1-0.2-0.2-0.3
		c-0.9-0.3-1.3,0.6-1.9,0.9c-3.4,2.3-6.6,4.8-10,7c-1.8,1.2-3.7,2.3-5.5,3.4s-3.7,2.2-5.5,3.5c-1.1,0.7-2.3,1.2-3.4,1.9
		c-1.5,0.9-3.1,1.4-4.5,2.5c-1.3,0.1-2.1,1.2-3.4,1.4c-0.9,0.2-1.5,1-2.5,1.1c-0.8,0.2-1.6,0.5-2.3,1c-0.9,0.5-1.9,0.8-3,1
		c-1,0.2-1.9,1-3,0.5c-0.1-0.1-0.4,0.1-0.5,0.1c-1.6,0.5-3.3,0.6-4.9,0.1c-2.2-0.3-3.9-1.9-4.4-4c-1.4-4.5-2.6-9.1-4.1-13.6
		c-0.3-1,0-2.1-0.5-3.1c-0.5-0.9-0.8-2-0.9-3.1c0-1.3-0.3-2.6-0.8-3.8c-0.4-1,0-1.9-0.4-2.9c-0.4-0.8-0.7-1.8-0.8-2.7
		c0-1.1-0.2-2.2-0.6-3.2c-0.3-0.9,0.1-1.8-0.3-2.7c-0.4-0.8-0.7-1.6-0.7-2.5c0.1-1.4-0.7-2.5-0.7-3.8c-0.1-1.8-0.9-3.4-1.1-5
		s-0.9-3.2-1.1-4.8c-0.3-3.1-1.5-6-2.3-9c-0.2-0.7,0.4-1.6-0.3-2.1s-0.6-1-0.8-1.6c-0.3-0.8-0.5-1.5-0.7-2.4
		c-2.2-0.8-4.5-1.2-6.9-1.4c-0.9,4.9-1.7,9.7-2.6,14.7l0.6,2.1c6.4,21.7,12.9,43.5,19.3,65.2c0.9,2.6,2.3,5,4,7.1
		c2,2.5,4.5,4.4,7.3,5.7C308.4,356,309.6,356,310.6,356.6L310.6,356.6z"/>
	<path class="st2" d="M322.6,397c1.5-0.4,3-0.9,4.5-1.3c2.6-0.7,4.9-2.1,7.5-2.6c0.7-0.1,1.1-0.8,1.9-1c0.7,0,1.3-0.3,1.8-0.9
		c0-0.1,0.2-0.1,0.4-0.1c0.9-0.2,1.7-0.6,2.5-1.1c0.6-0.5,1.8-0.3,2.4-1.2c1.2,0,2-0.9,3-1.3c1.8-0.7,3.5-1.6,5.1-2.6
		c0.8-0.4,1.6-0.8,2.5-1.1c0.7-0.5,1.6-0.9,2.4-1.2c1-0.1,1.5-1.1,2.5-1.1c1.8-1.1,3.3-2.4,4.6-4c0.8-1.2,1.5-2.4,2.2-3.6
		c1.8-3.8,2.8-7.8,3.1-12c0.2-2.3,0.2-4.7,0.2-7c-0.1-2.2-0.4-4.3-0.4-6.5c0-0.1-0.1-0.2-0.2-0.3c-0.9-0.3-1.3,0.6-1.8,0.9
		c-3.4,2.3-6.6,4.8-10,7c-1.8,1.2-3.7,2.3-5.5,3.4s-3.7,2.2-5.5,3.5c-1.1,0.7-2.3,1.2-3.4,1.9c-1.5,0.9-3.1,1.4-4.5,2.5
		c-1.3,0.1-2.1,1.2-3.4,1.4c-0.9,0.2-1.5,1-2.5,1.1c-0.8,0.2-1.6,0.5-2.3,1c-0.9,0.5-1.9,0.8-3,1c-1,0.2-1.9,1-3,0.5
		c-0.1-0.1-0.4,0.1-0.5,0.1c-1.6,0.7-3.3,0.4-4.9,0.1c-2.2-0.3-3.9-1.9-4.5-4c-1.4-4.5-2.6-9.1-4-13.6c-0.3-1,0-2.1-0.5-3.1
		c-0.5-0.9-0.8-2-0.9-3.1c0-1.3-0.3-2.6-0.8-3.8c-0.3-1,0-1.9-0.4-2.9c-0.4-0.8-0.7-1.8-0.8-2.7c0-1.1-0.2-2.2-0.7-3.2
		c-0.3-0.9,0.1-1.8-0.3-2.7c-0.4-0.8-0.7-1.6-0.7-2.5c0.1-1.4-0.7-2.5-0.7-3.8c-0.1-1.8-0.9-3.4-1.1-5s-0.9-3.2-1.1-4.8
		c-0.3-3.1-1.5-6-2.3-9c-0.2-0.7,0.4-1.6-0.3-2.1s-0.6-1-0.8-1.6c-0.3-0.8-0.5-1.5-0.7-2.4c-2.2-0.8-4.5-1.2-6.9-1.4
		c-0.9,4.9-1.7,9.7-2.6,14.7l0.6,2.1c6.4,21.7,12.9,43.5,19.3,65.2c0.9,2.6,2.3,5,4,7.1c2,2.5,4.5,4.4,7.3,5.7
		C320.4,396.4,321.6,396.4,322.6,397L322.6,397z"/>
	<path class="st2" d="M319.7,302c-1.5-2-2.9-4.1-4.4-6.1c-2.5-3.4-4.2-7.5-7-10.7c-0.7-0.9-0.6-2.2-1.5-3.1
		c-0.9-0.7-1.3-1.7-1.4-2.8c0-0.2-0.2-0.3-0.3-0.5c-0.7-1.2-1.8-2.2-2.1-3.8c-0.3-1.3-2-2.2-1.9-3.9c-1.4-1.2-1.7-3.1-2.5-4.6
		c-1.3-2.7-3-5.3-4-8.2c-0.6-1.3-1.3-2.6-2-3.8c-0.6-1.3-0.9-2.8-1.9-3.9s-0.8-2.9-2-3.9c-0.9-3.1-2.1-6.2-2-9.6
		c0.1-2.3,0.4-4.5,0.7-6.8c0.5-3.2,1.8-6.1,2.9-9.1c1.3-3.2,2.9-6.3,4.9-9.1c2.1-3.1,4.3-6.2,6.6-9.1c2.2-2.7,4.8-5.1,6.9-7.9
		c0.1-0.1,0.3-0.2,0.5-0.2c1.4,0.5,1.1,2,1.5,3c2.1,6.2,3.7,12.5,5.8,18.7c1.1,3.3,2.5,6.5,3.6,9.8s2.5,6.5,3.6,9.8
		c0.6,2,1.8,3.8,2.5,5.7c1,2.6,2.6,4.9,3.2,7.6c1.5,1.4,1.5,3.6,2.9,5.1c1,1.1,0.9,2.7,2,3.9c0.9,1,1.6,2.2,2,3.5
		c0.7,1.6,1.7,3,2.9,4.2c1.1,1.2,1.4,3.1,3.3,3.6c0.2,0.1,0.4,0.5,0.5,0.7c1.4,2.4,3.8,3.7,6.1,5c3,1.8,6.8,1.5,9.5-0.7
		c6.1-4.4,12.2-8.9,18.4-13.3c1.4-1,2-2.6,3.6-3.4c1.6-0.7,3-1.7,4.1-3c1.3-1.6,2.9-3,4.7-4c1.4-0.9,1.9-2.4,3.3-3.3
		s2.8-1.5,3.6-2.7c1.1-1.4,2.4-2.6,4-3.4c1.3-0.8,1.7-2.4,3.1-3.1c1.3-0.6,2.5-1.4,3.4-2.5c1.2-1.8,3.3-2.5,4.6-4.1
		c1.9-2.1,4.5-3.3,6.3-5.3s4.3-3.2,6.1-5.1c3.5-3.7,7.8-6.1,11.8-9.1c0.9-0.7,1.1-2.4,2.4-2.4s1.8-0.7,2.6-1.2
		c1.1-0.7,2.1-1.5,3.2-2.3c3.6,1.2,6.9,2.9,10,5l-11,21.2l-2.8,2c-29.4,21.3-58.8,42.5-88.3,63.8c-3.6,2.6-7.8,3.9-12,5
		c-5,1.4-10,1-14.9,0.1C323.1,303.4,321.6,302.2,319.7,302z"/>
	<path class="st2" d="M471.2,194.8c1,1.2,1.9,2.5,2.9,3.7c1.7,2.1,2.8,4.6,4.6,6.5c0.5,0.5,0.5,1.4,1,1.9c0.5,0.4,0.9,1,0.9,1.7
		c0,0.1,0.1,0.2,0.2,0.3c0.6,0.7,1.1,1.5,1.4,2.3c0.2,0.8,1.3,1.3,1.3,2.4c0.9,0.7,1.1,1.9,1.6,2.8c1,1.6,1.9,3.3,2.6,5
		c0.4,0.8,0.9,1.6,1.4,2.3c0.3,0.9,0.7,1.7,1.3,2.4c0.7,0.7,0.5,1.8,1.3,2.4c0.8,1.9,1.3,3.9,1.4,5.9c0,1.4-0.1,2.8-0.3,4.2
		c-0.3,2-0.9,3.9-1.6,5.7c-0.7,2-1.7,4-2.9,5.8c-1.2,2-2.5,3.9-4,5.8c-1.3,1.7-2.9,3.3-4.1,5.1c-0.1,0.1-0.2,0.1-0.3,0.2
		c-0.9-0.3-0.8-1.2-1-1.8c-1.4-3.8-2.6-7.7-4-11.5c-0.8-2-1.7-4-2.5-6s-1.7-4-2.5-6c-0.5-1.2-1.2-2.3-1.7-3.5
		c-0.7-1.6-1.7-3-2.2-4.6c-1-0.8-1-2.2-1.9-3.1c-0.6-0.7-0.6-1.7-1.3-2.4c-0.6-0.6-1-1.3-1.3-2.1c-0.5-1-1.1-1.8-1.9-2.5
		c-0.7-0.7-1-1.9-2.1-2.2c-0.1,0-0.3-0.3-0.4-0.4c-1-1.3-2.4-2.4-3.9-3c-1.9-1-4.3-0.8-5.9,0.6c-3.7,2.9-7.4,5.8-11.2,8.7
		c-0.9,0.6-1.2,1.7-2.1,2.2c-1,0.5-1.8,1.2-2.5,2c-0.8,1-1.7,1.9-2.9,2.6c-0.8,0.6-1.1,1.6-2,2.1c-0.8,0.4-1.6,1-2.2,1.8
		c-0.6,0.9-1.4,1.7-2.4,2.2c-0.8,0.5-1,1.5-1.9,2c-0.8,0.4-1.5,0.9-2,1.6c-0.7,1.1-2,1.7-2.8,2.6c-1.1,1.4-2.7,2.2-3.8,3.5
		s-2.6,2.1-3.7,3.3c-2.1,2.4-4.8,4-7.1,6c-0.6,0.5-0.6,1.5-1.4,1.5s-1.1,0.5-1.6,0.8c-0.7,0.5-1.3,1-2,1.5c-2.2-0.7-4.4-1.6-6.4-2.9
		c2.1-4.5,4.2-8.9,6.4-13.4l1.7-1.4c17.9-13.9,35.8-27.9,53.6-41.8c2.2-1.6,4.7-2.7,7.4-3.4c3-0.9,6.2-1,9.3-0.4
		C469,194,470,194.7,471.2,194.8L471.2,194.8z"/>
	<path class="st2" d="M486.6,181.3c-0.9-1.3-1.8-2.6-2.7-3.8c-1.5-2.2-3.6-4-5-6.3c-0.4-0.6-1.2-0.8-1.5-1.5
		c-0.2-0.6-0.8-1.1-1.4-1.4c-0.1,0-0.1-0.2-0.2-0.3c-0.5-0.8-1.1-1.4-1.8-2c-0.7-0.4-0.9-1.6-1.9-1.9c-0.4-1.1-1.5-1.6-2.2-2.4
		c-1.3-1.4-2.6-2.8-4.1-4c-0.7-0.6-1.3-1.3-1.8-2c-0.6-0.6-1.5-1.1-1.9-1.9s-1.5-1-1.9-2c-1.6-1.3-3.4-2.3-5.3-3
		c-1.4-0.4-2.7-0.7-4.1-0.9c-4.1-0.4-8.3-0.1-12.3,1c-2.3,0.6-4.5,1.3-6.7,2.1c-2,0.8-4,1.8-6,2.5c-0.1,0-0.2,0.2-0.2,0.3
		c0,0.9,1,1.1,1.5,1.4c3.3,2.5,6.7,4.7,9.9,7.2c1.7,1.3,3.4,2.8,5.1,4.1s3.3,2.8,5,4.1c1,0.8,1.9,1.8,2.9,2.6
		c1.3,1.1,2.4,2.5,3.8,3.4c0.5,1.2,1.8,1.6,2.4,2.7c0.4,0.8,1.4,1.1,1.9,1.9c0.4,0.7,1,1.4,1.7,1.9c0.8,0.7,1.4,1.6,1.9,2.6
		c0.5,0.9,1.6,1.5,1.5,2.7c0,0.1,0.2,0.3,0.3,0.4c1,1.4,1.6,3,1.7,4.6c0.5,2.1-0.5,4.3-2.3,5.5c-3.8,2.7-7.7,5.4-11.5,8.2
		c-0.9,0.6-1.9,0.7-2.8,1.4c-0.7,0.8-1.6,1.4-2.6,1.8c-1.2,0.5-2.3,1.1-3.3,2c-0.8,0.6-1.8,0.6-2.6,1.3c-0.7,0.7-1.4,1.2-2.3,1.6
		c-1.1,0.3-2,0.9-2.8,1.7c-0.7,0.6-1.7,0.5-2.4,1.2c-0.6,0.7-1.3,1.2-2.1,1.5c-1.3,0.4-2.2,1.4-3.3,1.9c-1.6,0.7-2.9,2-4.4,2.6
		s-2.7,1.9-4.2,2.6c-2.9,1.3-5.2,3.4-7.8,5.1c-0.6,0.4-1.6,0.2-1.9,0.9s-0.8,0.9-1.3,1.3c-0.6,0.5-1.3,0.9-2,1.4
		c0,2.3,0.3,4.7,0.9,6.9l14.7-2.3l1.8-1.3c18.5-13.1,36.9-26.3,55.4-39.4c2.1-1.7,4-3.8,5.4-6.1c1.7-2.7,2.7-5.7,3-8.8
		C486.8,183.6,486.4,182.4,486.6,181.3L486.6,181.3z"/>
</g>
<path class="st0" d="M294.8,184.5c-8.2,29.4-16.3,58.4-24.4,87.5l-1,0.2c-8.9-29.1-17.8-58.1-26.6-87.3l25.7-43.4L294.8,184.5z"/>
<path class="st0" d="M500.1,326.4c2.4-1.3,2-3.1-0.7-3.3l-33.6-2.3c-1.1-0.1-2.2,0.1-3.2,0.5l-72.4,26.9l0.2,0.9l76.9-5.8
	c1.1-0.1,2.1-0.4,3.1-0.9L500.1,326.4z"/>
<path class="st0" d="M476.1,363.6c2-1.1,1.7-2.5-0.6-2.7l-27.8-1.9c-0.9,0-1.8,0.1-2.7,0.4l-59.9,22.3l0.2,0.8l63.7-4.8
	c0.9-0.1,1.8-0.3,2.6-0.7L476.1,363.6z"/>
<path class="st2" d="M15.7,274.3c0.7-2.4,1.4-4.8,2.1-7.3c1.1-4.1,3.3-7.9,4.2-12.1c0.2-1.1,1.3-1.9,1.5-3.1c0-1.1,0.5-2.1,1.4-2.8
	c0.1-0.1,0.1-0.4,0.2-0.6c0.5-1.4,0.7-2.8,1.7-4c0.9-1.1,0.5-2.9,1.8-3.9c0.1-1.9,1.4-3.2,2.1-4.8c1.3-2.7,2.3-5.6,4.1-8.2
	c0.7-1.3,1.2-2.6,1.7-4c0.7-1.3,1.7-2.4,1.9-3.9s1.8-2.4,1.8-3.9c1.9-2.7,3.6-5.5,6.4-7.4c1.9-1.3,3.8-2.4,5.8-3.5
	c2.8-1.6,5.9-2.4,8.9-3.3c3.3-1,6.8-1.5,10.2-1.7c3.7-0.3,7.5-0.4,11.2-0.3c3.5,0.1,5.1,1.2,8.6,1.2c0.2,0-0.8,2.2-0.6,2.3
	c0.4,1.4,2.1-0.5,1.5,0.4c-3.6,5.4-7.6,10.6-11.2,16.1c-1.9,2.9-3.6,6-5.5,8.9s-3.5,6-5.5,8.9c-1.1,1.7-1.9,3.7-3,5.5
	c-1.4,2.3-2.3,5-4,7.2c-0.1,2-1.9,3.4-2.2,5.4c-0.3,1.5-1.6,2.4-1.8,4c-0.2,1.3-0.8,2.6-1.5,3.7c-0.8,1.5-1.3,3.2-1.5,4.9
	c-0.3,1.6-1.6,3.1-0.8,4.9c0.1,0.2-0.1,0.6-0.2,0.9c-1.1,2.6-0.6,5.3-0.2,7.9c0.4,3.5,3,6.3,6.4,7.1c7.3,2.1,14.5,4.2,21.8,6.4
	c1.6,0.5,3.3,0,4.9,0.7c1.5,0.8,3.2,1.3,4.9,1.4c2.1,0,4.1,0.5,6,1.3c1.5,0.5,3.1,0,4.6,0.6s2.9,1.3,4.3,1.2c1.8,0,3.5,0.3,5.1,1
	c1.4,0.5,2.9-0.1,4.3,0.5c1.2,0.7,2.6,1.1,4,1.1c2.2-0.1,4,1,6,1.1c2.8,0.1,5.4,1.5,8.1,1.7s5.1,1.4,7.8,1.7c5,0.5,9.6,2.4,14.4,3.6
	c1.1,0.3,2.6-0.6,3.4,0.4s1.7,1,2.6,1.3c1.2,0.4,2.5,0.8,3.8,1.1c1.2,3.5,2,7.2,2.3,11l-23.4,4.3l-3.4-1
	c-34.9-10.1-69.7-20.3-104.6-30.4c-4.2-1.2-7.8-3.7-11.4-6.4c-4.2-3.1-6.9-7.2-9.2-11.7C16.7,277.8,16.6,275.8,15.7,274.3
	L15.7,274.3z"/>
<path class="st2" d="M228,356.6c-1.5-0.5-3-0.9-4.5-1.3c-2.6-0.7-4.9-2.1-7.5-2.6c-0.7-0.1-1.1-0.8-1.9-1c-0.7,0-1.3-0.3-1.7-0.9
	c0-0.1-0.2-0.1-0.4-0.1c-0.9-0.2-1.7-0.6-2.5-1.1c-0.7-0.5-1.8-0.3-2.4-1.2c-1.2,0-2-0.9-3-1.3c-1.8-0.7-3.5-1.6-5.1-2.6
	c-0.8-0.4-1.6-0.8-2.5-1.1c-0.7-0.5-1.6-0.9-2.4-1.2c-1-0.1-1.5-1.1-2.4-1.1c-1.8-1.1-3.3-2.4-4.6-4c-0.8-1.2-1.5-2.4-2.2-3.6
	c-0.9-1.8-1.5-3.6-2-5.6c-0.6-2.1-0.9-4.2-1-6.4c-0.2-2.3-0.2-4.7-0.2-7c0.1-2.2,0.4-4.3,0.4-6.5c0-0.1,0.1-0.2,0.2-0.3
	c0.9-0.3,1.3,0.6,1.9,0.9c3.4,2.3,6.6,4.8,10,7c1.8,1.2,3.7,2.3,5.5,3.4s3.7,2.2,5.5,3.5c1.1,0.7,2.3,1.2,3.4,1.9
	c1.5,0.9,3.1,1.4,4.5,2.5c1.3,0.1,2.1,1.2,3.4,1.4c0.9,0.2,1.5,1,2.5,1.1c0.8,0.2,1.6,0.5,2.3,1c0.9,0.5,1.9,0.8,3,1
	c1,0.2,1.9,1,3,0.5c0.1-0.1,0.4,0.1,0.5,0.1c1.6,0.5,3.3,0.6,4.9,0.1c2.2-0.3,3.9-1.9,4.4-4c1.4-4.5,2.6-9.1,4.1-13.6
	c0.3-1,0-2.1,0.4-3.1c0.5-0.9,0.8-2,0.9-3.1c0-1.3,0.3-2.6,0.8-3.8c0.4-1,0-1.9,0.4-2.9c0.4-0.8,0.7-1.8,0.8-2.7
	c0-1.1,0.2-2.2,0.7-3.2c0.3-0.9-0.1-1.8,0.3-2.7c0.4-0.8,0.7-1.6,0.7-2.5c-0.1-1.4,0.7-2.5,0.7-3.8c0.1-1.8,0.9-3.4,1.1-5
	s0.9-3.2,1.1-4.8c0.3-3.1,1.5-6,2.3-9c0.2-0.7-0.4-1.6,0.3-2.1s0.6-1,0.8-1.6c0.3-0.8,0.5-1.5,0.7-2.4c2.2-0.8,4.5-1.2,6.9-1.4
	c0.9,4.9,1.7,9.7,2.6,14.7l-0.6,2.1c-6.4,21.7-12.9,43.5-19.3,65.2c-0.9,2.6-2.2,5-4,7.1c-2,2.5-4.5,4.4-7.3,5.7
	C230.2,356,229,356,228,356.6L228,356.6z"/>
<path class="st2" d="M216,397c-1.5-0.4-3-0.9-4.5-1.3c-2.6-0.7-4.9-2.1-7.5-2.6c-0.7-0.1-1.1-0.8-1.9-1c-0.7,0-1.3-0.3-1.8-0.9
	c0-0.1-0.2-0.1-0.4-0.1c-0.9-0.2-1.7-0.6-2.5-1.1c-0.6-0.5-1.8-0.3-2.4-1.2c-1.2,0-2-0.9-3-1.3c-1.8-0.7-3.5-1.6-5.1-2.6
	c-0.8-0.4-1.6-0.8-2.4-1.1c-0.7-0.5-1.6-0.9-2.4-1.2c-1-0.1-1.5-1.1-2.5-1.1c-1.8-1.1-3.3-2.4-4.6-4c-0.8-1.2-1.5-2.4-2.2-3.6
	c-1.8-3.8-2.8-7.8-3.1-12c-0.2-2.3-0.2-4.7-0.2-7c0.1-2.2,0.4-4.3,0.4-6.5c0-0.1,0.1-0.2,0.2-0.3c0.9-0.3,1.3,0.6,1.8,0.9
	c3.4,2.3,6.6,4.8,10,7c1.8,1.2,3.7,2.3,5.5,3.4s3.7,2.2,5.5,3.5c1.1,0.7,2.3,1.2,3.4,1.9c1.4,0.9,3.1,1.4,4.5,2.5
	c1.3,0.1,2.1,1.2,3.4,1.4c0.9,0.2,1.5,1,2.5,1.1c0.8,0.2,1.6,0.5,2.3,1c0.9,0.5,1.9,0.8,3,1c1,0.2,1.9,1,3,0.5
	c0.1-0.1,0.4,0.1,0.5,0.1c1.6,0.7,3.3,0.4,4.9,0.1c2.2-0.3,3.9-1.9,4.4-4c1.4-4.5,2.6-9.1,4-13.6c0.3-1,0-2.1,0.4-3.1
	c0.5-0.9,0.8-2,0.9-3.1c0-1.3,0.3-2.6,0.8-3.8c0.3-1,0-1.9,0.4-2.9c0.4-0.8,0.7-1.8,0.8-2.7c0-1.1,0.2-2.2,0.7-3.2
	c0.3-0.9-0.1-1.8,0.3-2.7c0.4-0.8,0.7-1.6,0.7-2.5c-0.1-1.4,0.7-2.5,0.7-3.8c0.1-1.8,0.9-3.4,1.1-5s0.9-3.2,1.1-4.8
	c0.3-3.1,1.5-6,2.3-9c0.2-0.7-0.4-1.6,0.3-2.1s0.6-1,0.8-1.6c0.3-0.8,0.5-1.5,0.7-2.4c2.2-0.8,4.5-1.2,6.8-1.4
	c0.9,4.9,1.7,9.7,2.6,14.7l-0.6,2.1c-6.4,21.7-12.9,43.5-19.3,65.2c-0.9,2.6-2.3,5-4,7.1c-2,2.5-4.5,4.4-7.3,5.7
	C218.2,396.4,217,396.4,216,397L216,397z"/>
<path class="st2" d="M218.8,302c1.5-2,2.9-4.1,4.4-6.1c2.6-3.4,4.2-7.5,6.9-10.7c0.7-0.9,0.6-2.2,1.5-3.1c0.9-0.7,1.4-1.7,1.4-2.8
	c0-0.2,0.2-0.3,0.3-0.5c0.7-1.2,1.8-2.2,2.1-3.8c0.3-1.3,2-2.2,1.9-3.9c1.4-1.2,1.7-3.1,2.5-4.6c1.3-2.7,3-5.3,4-8.2
	c0.6-1.3,1.3-2.6,2-3.8c0.6-1.3,0.9-2.8,1.9-3.9s0.8-2.9,2-3.9c0.9-3.1,2.1-6.2,2-9.6c-0.1-2.3-0.4-4.5-0.7-6.8
	c-0.5-3.2-1.8-6.1-2.9-9.1c-1.3-3.2-2.9-6.3-4.9-9.1c-2.1-3.1-4.3-6.2-6.6-9.1c-2.2-2.7-4.8-5.1-6.9-7.9c-0.1-0.1-0.3-0.2-0.5-0.2
	c-1.4,0.5-1.1,2-1.4,3c-2.1,6.2-3.7,12.5-5.8,18.7c-1.1,3.3-2.5,6.5-3.6,9.8s-2.5,6.5-3.6,9.8c-0.6,2-1.8,3.8-2.5,5.7
	c-1,2.6-2.6,4.9-3.2,7.6c-1.5,1.4-1.6,3.6-2.9,5.1c-1,1.1-0.9,2.7-2,3.9c-0.9,1-1.6,2.2-2,3.5c-0.7,1.6-1.7,3-2.9,4.2
	c-1.1,1.2-1.4,3.1-3.3,3.6c-0.2,0.1-0.4,0.5-0.5,0.7c-1.4,2.4-3.8,3.7-6.1,5c-3,1.8-6.8,1.5-9.5-0.7c-6.1-4.4-12.2-8.9-18.4-13.3
	c-1.4-1-2-2.6-3.6-3.4c-1.6-0.7-3-1.7-4.1-3c-1.3-1.6-2.9-3-4.7-4c-1.4-0.9-1.9-2.4-3.3-3.3s-2.8-1.5-3.6-2.7
	c-1.1-1.4-2.4-2.6-4-3.4c-1.3-0.8-1.7-2.4-3.1-3.1c-1.3-0.6-2.5-1.4-3.4-2.5c-1.3-1.8-3.3-2.5-4.6-4.1c-1.9-2.1-4.4-3.3-6.3-5.3
	s-4.3-3.2-6.1-5.1c-3.5-3.7-7.8-6.1-11.8-9.1c-0.9-0.7-1.1-2.4-2.4-2.4s-1.8-0.7-2.6-1.2c-1.1-0.7-2.1-1.5-3.2-2.3
	c-3.5,1.2-6.9,2.9-10,5c3.7,7.1,7.3,14,11,21.2l2.8,2.1c29.4,21.3,58.8,42.5,88.3,63.8c3.6,2.6,7.8,3.9,12,5c5,1.4,9.9,1,14.9,0.1
	C215.5,303.4,217,302.2,218.8,302L218.8,302z"/>
<path class="st2" d="M67.4,194.8c-1,1.2-1.9,2.5-2.9,3.7c-1.7,2.1-2.8,4.6-4.6,6.5c-0.5,0.5-0.4,1.4-1,1.9c-0.5,0.4-0.9,1-0.9,1.7
	c0,0.1-0.2,0.2-0.2,0.3c-0.6,0.7-1.1,1.5-1.4,2.3c-0.2,0.8-1.3,1.3-1.3,2.4c-0.9,0.7-1.1,1.9-1.6,2.8c-1,1.6-1.9,3.3-2.7,5
	c-0.4,0.8-0.9,1.6-1.4,2.4c-0.3,0.9-0.7,1.7-1.3,2.4c-0.7,0.7-0.5,1.8-1.3,2.4c-0.8,1.9-1.3,3.9-1.4,5.9c0,1.4,0.1,2.8,0.3,4.2
	c0.3,2,0.9,3.9,1.6,5.7c0.7,2,1.7,4,2.9,5.8c1.2,2,2.6,3.9,4,5.8c1.3,1.7,2.9,3.3,4.1,5.1c0.1,0.1,0.2,0.1,0.3,0.2
	c0.9-0.3,0.8-1.2,1-1.8c1.4-3.8,2.6-7.7,4.1-11.5c0.8-2,1.7-4,2.5-6s1.7-4,2.5-6c0.4-1.2,1.2-2.3,1.7-3.5c0.7-1.6,1.7-3,2.2-4.6
	c1-0.8,1-2.2,1.9-3.1c0.6-0.7,0.6-1.7,1.3-2.4c0.6-0.6,1-1.3,1.3-2.1c0.5-1,1.1-1.8,1.9-2.5c0.7-0.7,1-1.9,2.2-2.2
	c0.1,0,0.3-0.3,0.3-0.4c1-1.3,2.4-2.4,3.9-3c1.9-1,4.3-0.8,5.9,0.6c3.7,2.9,7.4,5.8,11.2,8.7c0.8,0.6,1.2,1.7,2.2,2.2
	c1,0.5,1.8,1.2,2.5,2c0.8,1,1.7,1.9,2.8,2.6c0.8,0.6,1.2,1.6,2,2.1c0.8,0.4,1.6,1,2.2,1.8c0.6,0.9,1.4,1.7,2.4,2.2
	c0.8,0.5,1,1.5,1.9,2c0.8,0.4,1.5,0.9,2.1,1.6c0.7,1.1,2,1.7,2.8,2.6c1.1,1.4,2.7,2.2,3.8,3.5s2.6,2.1,3.7,3.3c2.1,2.4,4.8,4,7.1,6
	c0.6,0.5,0.6,1.5,1.4,1.5s1.1,0.5,1.6,0.8c0.7,0.5,1.3,1,2,1.5c2.2-0.7,4.4-1.6,6.4-2.9c-2.1-4.5-4.2-8.9-6.4-13.4l-1.7-1.4
	c-17.9-13.9-35.7-27.8-53.6-41.8c-2.2-1.6-4.7-2.7-7.4-3.4c-3-0.9-6.2-1-9.3-0.4C69.6,194,68.6,194.7,67.4,194.8L67.4,194.8z"/>
<path class="st2" d="M52,181.3c0.9-1.3,1.8-2.6,2.7-3.8c1.5-2.2,3.6-4,5-6.3c0.4-0.6,1.2-0.8,1.5-1.5c0.2-0.6,0.8-1.1,1.4-1.4
	c0.1,0,0.1-0.2,0.2-0.3c0.5-0.8,1.1-1.4,1.8-2c0.7-0.4,0.9-1.6,1.9-1.9c0.4-1.1,1.5-1.6,2.2-2.4c1.3-1.4,2.6-2.8,4.1-4
	c0.7-0.6,1.3-1.3,1.8-2c0.6-0.6,1.5-1.1,1.9-1.9s1.5-1,1.9-2c1.6-1.3,3.3-2.3,5.2-3c1.4-0.4,2.7-0.7,4.1-0.9c4.1-0.4,8.3-0.1,12.3,1
	c2.3,0.6,4.5,1.3,6.7,2.1c2,0.8,4,1.8,6,2.5c0.1,0,0.2,0.2,0.2,0.3c0,0.9-1,1.1-1.5,1.4c-3.3,2.5-6.7,4.7-9.9,7.2
	c-1.7,1.3-3.3,2.8-5,4.1s-3.3,2.8-5,4.1c-1,0.8-1.9,1.8-2.9,2.6c-1.3,1.1-2.4,2.5-3.8,3.4c-0.5,1.2-1.8,1.6-2.4,2.7
	c-0.4,0.8-1.4,1.1-1.9,1.9c-0.4,0.7-1,1.4-1.7,1.9c-0.8,0.7-1.4,1.6-1.9,2.6c-0.5,0.9-1.6,1.5-1.5,2.7c0,0.1-0.2,0.3-0.3,0.4
	c-1,1.4-1.6,3-1.7,4.6c-0.5,2.1,0.5,4.3,2.3,5.5c3.8,2.7,7.7,5.4,11.5,8.2c0.9,0.6,1.9,0.7,2.7,1.4c0.7,0.8,1.6,1.4,2.6,1.8
	c1.2,0.5,2.3,1.1,3.3,2c0.8,0.6,1.8,0.6,2.6,1.3c0.7,0.7,1.4,1.2,2.3,1.6c1.1,0.3,2,0.9,2.8,1.7c0.7,0.6,1.7,0.5,2.4,1.2
	c0.6,0.7,1.3,1.2,2.2,1.5c1.3,0.4,2.2,1.4,3.3,1.9c1.6,0.7,2.9,2,4.4,2.6s2.7,1.9,4.2,2.6c2.9,1.3,5.2,3.4,7.8,5.1
	c0.6,0.4,1.6,0.2,1.9,0.9s0.8,0.9,1.3,1.3c0.6,0.5,1.3,0.9,2,1.4c0,2.3-0.3,4.7-0.9,6.9l-14.7-2.3l-1.8-1.3
	c-18.5-13.1-36.9-26.3-55.4-39.4c-2.1-1.7-4-3.7-5.4-6.1c-1.7-2.7-2.7-5.7-3-8.8C51.8,183.6,52.2,182.4,52,181.3L52,181.3z"/>
<path class="st0" d="M38.5,326.4c-2.4-1.3-2-3.1,0.7-3.3l33.6-2.3c1.1-0.1,2.2,0.1,3.2,0.5l72.4,26.9l-0.2,0.9l-77-5.8
	c-1.1-0.1-2.1-0.4-3.1-0.9L38.5,326.4z"/>
<path class="st0" d="M62.5,363.6c-2-1.1-1.7-2.5,0.6-2.7l27.8-1.9c0.9,0,1.8,0.1,2.7,0.4l59.9,22.3l-0.2,0.8l-63.7-4.8
	c-0.9-0.1-1.8-0.3-2.6-0.7L62.5,363.6z"/>
</svg>
