<?xml version="1.0" encoding="utf-8"?>
<!-- Generator: Adobe Illustrator 23.0.1, SVG Export Plug-In . SVG Version: 6.00 Build 0)  -->
<svg version="1.1" id="Capa_1" xmlns="http://www.w3.org/2000/svg" xmlns:xlink="http://www.w3.org/1999/xlink" x="0px" y="0px"
	 viewBox="0 0 538.6 538.6" style="enable-background:new 0 0 538.6 538.6;" xml:space="preserve">
<style type="text/css">
	.st0{fill:#F9E400;}
	.st1{fill:#413273;}
</style>
<circle class="st0" cx="269.3" cy="269.3" r="269.3"/>
<circle class="st1" cx="269.3" cy="269.3" r="260"/>
<g>
	<path class="st0" d="M238.7,365.2c-3.2-1.5-6.4-2.8-9.8-2.8c-28.1-0.3-56.2-0.6-84.3-0.8h-2.7l-1.2,0.7v-2.4
		c0.1-33.7,0.2-67.5,0.2-101.2c-0.2-4-0.9-8-2.3-11.8c-1.4-4.2-3.7-8.1-6.7-11.3c-1-1.2-2.4-1.7-3.4-3c-1.9,0-3.9,0-5.9,0
		c-3.3-0.1-6.6,0.9-9.9,0.6c-0.9-0.1-1.7,0.7-2.6,0.6c-0.8-0.3-1.7-0.1-2.4,0.5c-0.1,0.1-0.3,0-0.5,0c-1.1,0.1-2.2-0.1-3.3,0.5
		c-1,0.5-2.3-0.3-3.3,0.6c-1.4-0.4-2.7,0.4-4,0.6c-2.4,0.3-4.7,0.8-7,1.5c-1.1,0.3-2.2,0.4-3.3,0.5c-1.1,0.2-2.2,0.9-3.3,0.6
		s-2.2,1-3.3,0.6c-2.4,1-4.8,1.8-6.9,3.7c-1.4,1.3-2.7,2.7-3.9,4.2c-1.7,2.2-3.2,4.6-4.4,7.1c-1.5,2.8-2.6,5.7-3.5,8.7
		c-1,3.2-1.9,6.5-2.7,9.9c-0.7,3.1-1,6.4-1.8,9.5c0,0.2,0,0.3,0.1,0.5c1,0.8,1.8-0.2,2.5-0.5c4.8-1.8,9.6-4,14.4-5.8
		c2.6-0.9,5.2-1.7,7.8-2.6s5.2-1.6,7.8-2.6c1.5-0.6,3.2-0.7,4.7-1.2c2-0.7,4.2-0.7,6.2-1.7c1.6,0.4,2.9-0.8,4.5-0.6
		c1.1,0.2,2.1-0.8,3.3-0.6c1.1,0.1,2.1,0,3.1-0.4c1.3-0.3,2.7-0.3,4-0.1c1.3,0.1,2.6-0.6,3.8,0.5c0.1,0.1,0.5,0,0.7,0
		c2.2-0.3,4.1,0.9,5.9,1.9c2.6,1.4,3.9,4.1,3.9,7.5c0,7-0.1,14.1,0,21.1c0,1.6-0.7,2.9-0.6,4.5c0.3,1.6,0.3,3.2,0,4.8
		c-0.4,1.9-0.5,3.8-0.4,5.7c0.1,1.5-0.7,2.8-0.6,4.3c0.2,1.4,0.2,2.8-0.1,4.2c-0.4,1.6-0.5,3.2-0.4,4.9c0.1,1.4-0.7,2.6-0.6,4
		c0.3,1.3,0.3,2.6,0,3.9c-0.6,1.9-0.1,3.9-0.5,5.7c-0.5,2.5-0.1,5.2-0.5,7.6s-0.1,5-0.4,7.4c-0.8,4.6-0.3,9.2-0.4,13.8
		c0,1.1-1,2.1-0.4,3.1c0.4,0.8,0.5,1.7,0.4,2.6c0.1,1.2,1,4,1,5.3c2.3,2,6.3,0.5,9,1.5c0.1,0.1,0.2,0.1,0.3,0.1
		c0.7,0,1.4-0.7,2.1-0.7c3.8-0.1,7.7,0.5,11.5-0.4c2-0.4,4.1,0,6.1-0.5s4.2,0,6.4-0.5c1.5-0.4,3.1,0.2,4.7-0.5
		c1.1-0.3,2.2-0.3,3.3,0c1.2,0.2,2.1-0.8,3.3-0.6c1.4,0.2,2.8,0.1,4.1-0.4c1.1-0.3,2.3-0.3,3.5,0c1.2,0.1,2.3-0.7,3.6-0.6
		c1.6,0.2,3.2,0.1,4.8-0.4c1.3-0.3,2.7-0.3,4,0c1.3,0.2,2.5-0.6,3.8-0.6c5.9,0.1,11.7,0.1,17.6,0.2c2.9,0,5.1,1.6,6.2,4.7
		c0.8,2.2,1.8,4.5,1.5,7.1c0,0.3-0.1,0.7,0,0.8c1,1.4,0.3,3,0.4,4.6c0.2,1.6,0.2,3.2-0.1,4.7c-0.3,1.2-0.5,2.5-0.4,3.7
		c0.1,1.4-0.6,2.6-0.5,4c0.2,1.9-0.9,3.5-0.5,5.4c-0.8,2.4-0.9,5-1.5,7.4c-0.4,1.9-0.6,3.9-1.1,5.7c-0.8,3.1-1.4,6.2-2.2,9.3
		s-1.4,6.3-2.2,9.3c-1.5,5.8-3.4,11.4-4.9,17.2c-0.2,0.9-1.1,1.9-0.5,3c0.1,0,0.3,0.1,0.4,0.1c2.6-0.9,5.3-1.3,7.9-2.1
		c2.8-0.9,5.6-1.9,8.3-3.1c2.6-1.1,5-2.4,7.3-4.1c2.2-1.5,4.2-3.3,5.9-5.2c1.3-1.5,2.4-3.1,3.5-4.7c1.6-2.5,2.3-5.4,3.2-8.3
		c-0.3-1.4,0.7-2.5,0.5-4c0-1.3,0.2-2.7,0.6-4c0.2-1.3,0.1-2.7,0.5-4c0.6-2.8,1-5.5,1.3-8.3c0.2-1.6,0.9-3.1,0.6-4.8
		c0.8-1.2,0.1-2.8,0.6-3.9c0.3-1.3,0.5-2.7,0.4-4c0-0.2-0.1-0.5,0-0.5c0.5-0.9,0.7-1.9,0.5-2.9c-0.1-1.1,0.6-2.1,0.5-3.1
		c-0.2-4,0.6-7.9,0.6-11.9c0-2.4,0-4.7,0-7c-1-1.2-1.5-2.9-2.4-4.1C245.3,369.9,242.4,367,238.7,365.2L238.7,365.2z"/>
	<path class="st0" d="M130.1,195.4c-0.1,0.5,0.1,1,0.3,0.4C130.2,195.7,130.1,195.6,130.1,195.4z"/>
	<path class="st0" d="M130,195.1c0,0.1,0,0.2,0.1,0.3c0.1,0.1,0.2,0.1,0.3,0.1c0,0.1,0,0.1-0.1,0.2s0.3,0,0.5-0.2s0.6-0.4,0.9-0.5
		c3-1.2,5.9-2.6,9-3.7c1.6-0.6,3.3-1.1,4.9-1.6s3.2-1,4.8-1.6c0.9-0.4,2-0.5,2.9-0.8c1.3-0.3,2.6-0.6,3.9-1.1c0.4,0.1,0.9,0,1.3-0.1
		c0.1,0.1,0.2,0.2,0.4,0.2c1.4-0.2,2.7-0.5,4.1-0.8c0.3,0,0.7-0.1,1-0.2c0.4,0,0.9-0.1,1.3-0.2h0.1c0.4,0,0.8,0,1.1,0.1
		c0.8,0.1,1.6-0.4,2.4,0.3c0.1,0.1,0.3,0,0.4,0c1.3,0,2.6,0.4,3.7,1.1c1.6,1,2.6,2.8,2.4,4.7c0,4.4,0,8.8,0.1,13.2
		c0,1-0.4,1.8-0.3,2.8c0.2,1,0.2,2,0,3c-0.2,1.2-0.3,2.4-0.2,3.6c0.1,1-0.4,1.7-0.3,2.7c0.2,0.9,0.2,1.7,0,2.6c-0.3,1-0.3,2-0.2,3
		c0.1,0.9-0.4,1.6-0.3,2.5c0.2,0.8,0.2,1.6,0,2.4c-0.4,1.2,0,2.4-0.3,3.6c-0.3,1.6,0,3.2-0.3,4.8s0,3.1-0.3,4.6
		c-0.4,2.9-0.1,5.8-0.2,8.6c0,0.7-0.6,1.4-0.3,1.9c0.2,0.5,0.3,1.1,0.3,1.6v1.7c-0.4,1.9-0.6,3.9-1.1,5.8c0,0.1,0,0.2,0,0.3
		c0.6,0.5,1.1-0.2,1.6-0.3c3-1.2,5.9-2.6,8.9-3.7c1.6-0.6,3.3-1.1,4.9-1.6s3.2-1,4.8-1.7c0.9-0.4,2-0.5,2.9-0.8
		c1.3-0.3,2.6-0.6,3.9-1.1c1,0.3,1.8-0.5,2.8-0.4c0.7,0.1,1.3-0.5,2.1-0.4c0.7,0.1,1.3,0,1.9-0.3c0.8-0.2,1.7-0.2,2.5-0.1
		c0.8,0.1,1.6-0.4,2.4,0.3c0.1,0.1,0.3,0,0.4,0c1.3,0,2.6,0.4,3.7,1.1c1.6,1,2.6,2.8,2.4,4.7c0,4.4,0,8.8,0.1,13.2
		c0,1-0.4,1.8-0.3,2.8c0.2,1,0.2,2,0,3c-0.2,1.2-0.3,2.4-0.2,3.6c0,0.9-0.4,1.7-0.3,2.7c0.2,0.9,0.2,1.7,0,2.6c-0.3,1-0.3,2-0.2,3
		c0.1,0.9-0.4,1.6-0.3,2.5c0.2,0.8,0.2,1.6,0,2.4c-0.4,1.2-0.1,2.4-0.3,3.5c-0.3,1.6,0,3.2-0.3,4.8s0,3.1-0.3,4.6
		c-0.4,2.9-0.1,5.8-0.2,8.6c0,0.7-0.6,1.3-0.3,1.9c0.2,0.5,0.3,1.1,0.3,1.6c0.1,0.8,0,1.5,0,2.3c1.4,1.2,3.1,2.2,4.8,3
		c1.7-4.2,3.4-8.2,5.1-12.4c0-0.5,0-1.3,0-2c-0.1-21.1-0.2-42.1-0.4-63.2c-0.1-2.5-0.6-5-1.5-7.3c-0.9-2.6-2.3-5-4.2-7
		c-0.6-0.7-1.5-1-2.1-1.8c-1.2,0-2.4,0-3.6,0c-2.1,0-4.1,0.6-6.2,0.4c-0.5,0-1,0.4-1.6,0.4c-0.5-0.2-1.1,0-1.5,0.3
		c-0.1,0.1-0.2,0-0.3,0c-0.7,0-1.4,0.1-2.1,0.3c-0.6,0.3-1.4-0.2-2.1,0.4c-0.9-0.3-1.7,0.3-2.5,0.4c-1.5,0.2-2.9,0.5-4.3,1
		c-0.7,0.2-1.4,0.3-2.1,0.3c-0.6,0.3-1.3,0.4-2.1,0.4c-0.8-0.1-1.3,0.6-2.1,0.4c-1.2,0.4-2.3,1-3.4,1.7c-0.1-18.1-0.2-36.3-0.3-54.4
		c-0.1-2.5-0.6-5-1.5-7.3c-0.9-2.6-2.3-5-4.2-7c-0.6-0.7-1.5-1-2.1-1.8c-1.2,0-2.4,0-3.6,0c-2.1,0-4.1,0.6-6.2,0.4
		c-0.5-0.1-1,0.5-1.6,0.4c-0.5-0.2-1.1,0-1.5,0.3c0,0.1-0.2,0-0.3,0c-0.7,0-1.4,0.1-2.1,0.3c-0.6,0.3-1.4-0.2-2.1,0.4
		c-0.9-0.3-1.7,0.2-2.5,0.4c-1.2,0.3-2.4,0.4-3.5,0.7c-0.5,0-1,0.1-1.5,0.3c-0.8,0.2-1.7,0.2-2.5,0c-0.8-0.1-1.6,0.4-2.4-0.3
		c-0.1-0.1-0.3,0-0.4,0c-1.3,0-2.6-0.4-3.7-1.2c-1.6-1-2.6-2.8-2.4-4.7c0-4.4,0.1-8.8,0-13.2c0-1,0.5-1.8,0.4-2.8c-0.2-1-0.2-2,0-3
		c0.3-1.2,0.3-2.4,0.2-3.6c0-1,0.4-1.7,0.4-2.7c-0.2-0.9-0.2-1.7,0-2.6c0.3-1,0.3-2,0.2-3c-0.1-0.9,0.5-1.6,0.4-2.5
		c-0.2-0.8-0.2-1.6,0-2.4c0.4-1.2,0.1-2.4,0.3-3.6c0.3-1.6,0.1-3.2,0.3-4.8s0-3.1,0.3-4.6c0.5-2.9,0.2-5.8,0.3-8.6
		c0-0.7,0.6-1.3,0.3-1.9c-0.2-0.5-0.3-1.1-0.2-1.7c0-0.8,0-1.5,0-2.3c-1.4-1.3-3-2.3-4.8-3.1l-5.1,12.4v2
		c-0.1,21.1-0.1,42.1-0.2,63.2c0.1,9.1-0.1,14.8-0.3,18.4C130.6,192,130.4,193.6,130,195.1L130,195.1z"/>
	<path class="st0" d="M480.3,272.9c-0.7-3.4-1.7-6.7-2.7-9.9c-0.9-3-2-5.9-3.5-8.7c-1.2-2.5-2.7-4.9-4.4-7.1
		c-1.2-1.5-2.5-2.9-3.9-4.2c-2.1-2-4.5-2.7-6.9-3.7c-1.2,0.4-2.1-0.8-3.3-0.6s-2.2-0.4-3.3-0.6c-1.1-0.1-2.2-0.3-3.3-0.5
		c-2.3-0.7-4.6-1.2-7-1.5c-1.3-0.3-2.6-1.1-4-0.6c-1-0.9-2.3-0.1-3.3-0.6c-1.1-0.6-2.2-0.4-3.4-0.5c-0.1,0-0.4,0.1-0.5,0
		c-0.6-0.6-1.6-0.8-2.4-0.5c-1,0.1-1.8-0.6-2.6-0.6c-3.3,0.3-6.6-0.6-9.9-0.6c-2,0-3.9,0-5.9,0c-1,1.3-2.4,1.8-3.4,3
		c-3,3.2-5.3,7.1-6.7,11.3c-1.4,3.8-2.1,7.8-2.3,11.8c0,33.7,0.1,67.5,0.2,101.2v2.3l-1.2-0.7H394c-28.1,0.3-56.2,0.5-84.3,0.8
		c-3.4,0-6.6,1.4-9.8,2.8c-3.8,1.7-6.7,4.7-9.3,8.1c-1,1.3-1.4,3-2.4,4.1c0,2.3,0,4.7,0,7c0,4,0.8,7.9,0.6,11.9
		c-0.1,1,0.6,2,0.5,3.1c-0.2,1-0.1,2,0.5,2.9c0.1,0.1,0,0.4,0,0.5c-0.1,1.3,0.1,2.7,0.4,4c0.4,1.2-0.2,2.7,0.6,3.9
		c-0.4,1.7,0.3,3.2,0.6,4.8c0.3,2.8,0.7,5.6,1.3,8.3c0.2,1.3,0.4,2.7,0.5,4c0.4,1.3,0.6,2.6,0.6,4c-0.2,1.4,0.8,2.6,0.5,4
		c0.9,2.9,1.5,5.8,3.2,8.3c1.1,1.6,2.3,3.2,3.5,4.7c1.8,1.9,3.8,3.7,5.9,5.2c2.2,1.7,4.7,3.1,7.3,4.1c2.7,1.2,5.5,2.3,8.3,3.1
		c2.6,0.8,5.3,1.2,7.9,2.1c0.1,0,0.3-0.1,0.4-0.1c0.6-1.1-0.2-2.1-0.5-3c-1.5-5.8-3.5-11.4-5-17.2c-0.8-3.1-1.4-6.2-2.2-9.3
		s-1.4-6.2-2.2-9.3c-0.5-1.8-0.6-3.8-1.1-5.7c-0.6-2.5-0.6-5-1.5-7.4c0.3-1.9-0.7-3.5-0.5-5.4c0.1-1.4-0.7-2.5-0.5-4
		c0.1-1.3,0-2.5-0.4-3.7c-0.3-1.6-0.3-3.2-0.1-4.7c0.1-1.5-0.5-3.1,0.4-4.6c0.1-0.2,0-0.5,0-0.8c-0.2-2.6,0.7-4.9,1.5-7.1
		c1.2-3.1,3.4-4.7,6.2-4.7c5.9-0.1,11.7-0.1,17.6-0.2c1.3,0,2.5,0.8,3.8,0.6c1.3-0.3,2.7-0.3,4,0c1.5,0.5,3.2,0.6,4.8,0.4
		c1.3-0.1,2.3,0.8,3.6,0.6c1.1-0.3,2.3-0.3,3.5,0c1.3,0.5,2.7,0.6,4,0.4c1.2-0.1,2.1,0.9,3.3,0.6c1.1-0.3,2.2-0.3,3.3,0
		c1.6,0.7,3.2,0.1,4.7,0.5c2.1,0.6,4.3,0.1,6.4,0.5s4.1,0,6.1,0.5c3.8,0.8,7.7,0.3,11.5,0.4c0.7,0,1.4,0.7,2.1,0.7h0
		c0.1,0,0.2-0.1,0.3-0.1c2.7-1,6.7,0.5,9-1.5c0-1.3,0.9-4.1,1-5.3c-0.1-0.9,0-1.8,0.4-2.6c0.6-0.9-0.4-2-0.4-3.1
		c-0.1-4.6,0.3-9.2-0.4-13.8c-0.4-2.4,0-4.9-0.4-7.4s0-5.1-0.5-7.6c-0.4-1.8,0.1-3.8-0.5-5.7c-0.3-1.3-0.3-2.6,0-3.9
		c0.2-1.4-0.6-2.6-0.6-4c0.2-1.6,0.1-3.3-0.4-4.9c-0.3-1.4-0.3-2.8-0.1-4.2c0.1-1.5-0.6-2.8-0.5-4.3c0.2-1.9,0.1-3.8-0.4-5.7
		c-0.3-1.6-0.3-3.2,0-4.8c0.2-1.6-0.6-3-0.5-4.5c0.1-7,0-14,0-21.1c0-3.5,1.3-6.1,3.9-7.5c1.8-1,3.7-2.2,5.9-1.9
		c0.2,0,0.5,0.1,0.7,0c1.2-1.2,2.5-0.4,3.8-0.5c1.3-0.3,2.7-0.3,4,0.1c1,0.4,2,0.5,3.1,0.4c1.2-0.2,2.2,0.7,3.3,0.6
		c1.5-0.2,2.9,1,4.5,0.6c2,1,4.2,1,6.2,1.7c1.6,0.5,3.2,0.7,4.7,1.2c2.6,1,5.2,1.7,7.8,2.6s5.2,1.6,7.8,2.6c4.8,1.7,9.6,4,14.4,5.8
		c0.7,0.3,1.6,1.3,2.5,0.5c0.1-0.2,0.1-0.3,0.1-0.5C481.3,279.3,481,276,480.3,272.9L480.3,272.9z"/>
	<path class="st0" d="M408.3,195.8c0.2,0.6,0.3,0.1,0.3-0.4C408.5,195.6,408.4,195.7,408.3,195.8z"/>
	<path class="st0" d="M323.6,318.8c0-0.8,0-1.5,0-2.3c-0.1-0.6,0-1.1,0.3-1.6c0.4-0.6-0.2-1.3-0.3-1.9c-0.1-2.9,0.2-5.8-0.2-8.6
		c-0.2-1.5,0-3-0.3-4.6s0-3.2-0.3-4.8c-0.2-1.1,0.1-2.4-0.3-3.5c-0.2-0.8-0.2-1.6,0-2.4c0.1-0.9-0.4-1.6-0.3-2.5c0.1-1,0.1-2-0.2-3
		c-0.2-0.9-0.2-1.7,0-2.6c0.1-0.9-0.4-1.7-0.3-2.7c0.1-1.2,0.1-2.4-0.2-3.6c-0.2-1-0.2-2,0-3c0.1-1-0.3-1.9-0.3-2.8
		c0.1-4.4,0.1-8.8,0.1-13.2c-0.1-1.9,0.8-3.7,2.5-4.7c1.1-0.8,2.4-1.2,3.7-1.1c0.1,0,0.3,0.1,0.4,0c0.7-0.7,1.6-0.2,2.4-0.3
		c0.8-0.2,1.7-0.1,2.5,0.1c0.6,0.3,1.3,0.4,1.9,0.3c0.7-0.1,1.4,0.5,2.1,0.4c1-0.1,1.8,0.6,2.8,0.4c1.3,0.5,2.6,0.8,3.9,1.1
		c1,0.3,2,0.4,2.9,0.8c1.6,0.6,3.2,1.1,4.8,1.7s3.3,1.1,4.9,1.6c3,1.1,6,2.5,9,3.7c0.5,0.2,1,0.8,1.6,0.3c0-0.1,0.1-0.2,0-0.3
		c-0.5-1.9-0.7-3.9-1.1-5.8c0-0.6,0-1.1,0-1.7c-0.1-0.6,0-1.1,0.3-1.6c0.4-0.6-0.2-1.3-0.3-1.9c-0.1-2.9,0.2-5.8-0.2-8.6
		c-0.2-1.5,0-3.1-0.3-4.6s0-3.2-0.3-4.8c-0.2-1.1,0.1-2.4-0.3-3.6c-0.2-0.8-0.2-1.6,0-2.4c0.1-0.9-0.4-1.6-0.3-2.5
		c0.1-1,0.1-2-0.2-3c-0.2-0.9-0.2-1.7,0-2.6c0.1-0.9-0.4-1.7-0.3-2.7c0.1-1.2,0.1-2.4-0.2-3.6c-0.2-1-0.2-2,0-3
		c0.1-1-0.3-1.9-0.3-2.8c0.1-4.4,0.1-8.8,0.1-13.2c-0.1-1.9,0.8-3.7,2.5-4.7c1.1-0.8,2.4-1.2,3.7-1.1c0.1,0,0.3,0.1,0.4,0
		c0.7-0.7,1.6-0.2,2.4-0.3c0.4,0,0.8-0.1,1.1-0.1h0.1c0.4,0.1,0.9,0.1,1.3,0.2c0.3,0.1,0.7,0.2,1,0.2c1.3,0.4,2.7,0.6,4.1,0.8
		c0.1,0,0.3,0,0.4-0.2c0.4,0.1,0.8,0.2,1.3,0.1c1.3,0.5,2.6,0.8,3.9,1.1c1,0.3,2,0.4,2.9,0.8c1.6,0.6,3.2,1.1,4.8,1.6
		s3.3,1.1,4.9,1.6c3,1.1,6,2.5,9,3.7c0.3,0.1,0.5,0.4,0.9,0.5s0.3,0.3,0.5,0.2s0-0.1,0-0.2c0.1,0,0.2-0.1,0.3-0.1
		c0-0.1,0.1-0.2,0-0.3c-0.4-1.5-0.6-3.1-0.8-4.6c-0.2-3.6-0.3-9.4-0.3-18.4c0-21.1-0.1-42.1-0.2-63.2c0-0.8,0-1.5,0-2l-5.2-12.4
		c-1.7,0.8-3.3,1.8-4.8,3.1v2.3c0.1,0.6,0,1.1-0.2,1.7c-0.4,0.6,0.3,1.2,0.3,1.9c0.1,2.9-0.2,5.8,0.3,8.6c0.2,1.5,0,3,0.3,4.6
		s0,3.2,0.3,4.8c0.2,1.1-0.1,2.4,0.3,3.6c0.2,0.8,0.2,1.6,0,2.4c-0.1,0.9,0.4,1.6,0.4,2.5c-0.1,1,0,2,0.2,3c0.2,0.9,0.2,1.7,0,2.6
		c-0.1,0.9,0.4,1.7,0.4,2.7c-0.1,1.2,0,2.4,0.2,3.6c0.2,1,0.2,2,0,3c-0.1,1,0.4,1.9,0.4,2.8v13.2c0.2,1.9-0.8,3.7-2.4,4.7
		c-1.1,0.8-2.4,1.2-3.7,1.2c-0.1,0-0.3-0.1-0.4,0c-0.7,0.7-1.6,0.2-2.4,0.3c-0.8,0.2-1.7,0.2-2.5,0c-0.5-0.2-1-0.3-1.5-0.3
		c-1.2-0.3-2.4-0.5-3.5-0.7c-0.8-0.2-1.6-0.7-2.5-0.4c-0.6-0.6-1.4-0.1-2-0.4c-0.7-0.3-1.4-0.4-2.1-0.3c-0.1,0-0.2,0-0.3,0
		c-0.4-0.4-1-0.5-1.5-0.3c-0.6,0.1-1.1-0.4-1.6-0.4c-2.1,0.2-4.1-0.4-6.2-0.4c-1.2,0-2.4,0-3.6,0c-0.6,0.8-1.5,1.1-2.1,1.8
		c-1.9,2-3.3,4.4-4.2,7c-0.9,2.4-1.4,4.8-1.5,7.3c-0.1,18.1-0.2,36.3-0.3,54.4c-1.1-0.7-2.2-1.2-3.4-1.7c-0.7,0.2-1.3-0.5-2.1-0.4
		c-0.7,0-1.4-0.1-2-0.4c-0.7-0.1-1.4-0.2-2.1-0.3c-1.4-0.4-2.9-0.8-4.3-1c-0.8-0.2-1.6-0.7-2.5-0.4c-0.6-0.6-1.5-0.1-2-0.4
		c-0.7-0.3-1.4-0.4-2.1-0.3c-0.1,0-0.2,0-0.3,0c-0.4-0.4-1-0.5-1.5-0.3c-0.6,0.1-1.1-0.4-1.6-0.4c-2.1,0.2-4.1-0.4-6.2-0.4
		c-1.2,0-2.4,0-3.6,0c-0.6,0.8-1.5,1.1-2.1,1.8c-1.9,2-3.4,4.4-4.2,7c-0.9,2.4-1.4,4.8-1.5,7.3c-0.1,21.1-0.2,42.1-0.4,63.2v2
		c1.7,4.2,3.4,8.3,5.1,12.4C320.6,321.1,322.2,320.1,323.6,318.8L323.6,318.8z"/>
	<path class="st0" d="M268.8,259.4h-1.7c-6.2,25.7-12.3,51.5-18.5,77.5c-0.3,1.1-0.1,2.2,0.4,3.3c5.5,10.9,10.9,21.7,16.5,32.8
		c0.6,1.6,2.5,2.4,4.1,1.8c0.8-0.3,1.4-1,1.8-1.8l16.5-32.8c0.5-1,0.6-2.2,0.4-3.3C281.6,311,275.2,285.2,268.8,259.4z"/>
	<path class="st0" d="M266.7,250.8c0.6,4.1,1.9,4.1,2.5,0c2.4-17.2,4.7-33.9,7-50.7c0.2-1.7,0.3-3.4,0.1-5.1
		c-2.7-40-5.5-79.9-8.2-119.8h-0.7c-2.6,39.8-5.3,79.6-7.9,119.9c-0.1,1.7-0.1,3.3,0.2,5C262,217,264.4,233.7,266.7,250.8
		L266.7,250.8z"/>
</g>
</svg>
