<?xml version="1.0" encoding="utf-8"?>
<!-- Generator: Adobe Illustrator 23.0.1, SVG Export Plug-In . SVG Version: 6.00 Build 0)  -->
<svg version="1.1" id="Capa_1" xmlns="http://www.w3.org/2000/svg" xmlns:xlink="http://www.w3.org/1999/xlink" x="0px" y="0px"
	 viewBox="0 0 538.6 538.6" style="enable-background:new 0 0 538.6 538.6;" xml:space="preserve">
<style type="text/css">
	.st0{fill:#F6E116;}
	.st1{fill:#413373;}
	.st2{fill:#F9E400;}
	.st3{fill:#F9E300;}
</style>
<path class="st0" d="M0,269.3C0.1,120,120.6-0.1,270.4,0c148.3,0.1,268.4,121.1,268.2,270.2c-0.2,148.4-121,268.5-270.1,268.4
	C120.4,538.4,0,417.7,0,269.3L0,269.3z M269.3,531.4c144.6,0,262-117.3,262.1-261.9C531.5,124.7,414.1,7.2,269.3,7.2
	C124.7,7.2,7.3,124.6,7.2,269.1C7.2,414,124.5,531.5,269.3,531.4z"/>
<path class="st1" d="M441.2,192.7c1.6-3.9,3-6.9,4-10.1c9.4-29.3,7.1-55.9-16.3-78.9c-21.4-20.9-46.6-35.3-73.3-47.9
	c-2.6-1.2-5-1-7.5-0.5c-15,2.6-26.8,10.5-34.1,23.6c-11.4,20.6-21.7,41.8-32.5,62.7l13.4,26.7c2.1-1.7,2.3-3.8,3.1-5.6
	c6-14,11.9-28.1,19.4-41.4c5.6-10,10.5-12,21.5-9.4c5,1.3,9.8,3.3,14.3,5.8c10.6,5.6,20.1,12.6,29.5,20.1
	C403.3,154.2,422.1,172.8,441.2,192.7z M255.7,142c-10.5-20.6-20.4-40.8-31-60.7c-6.4-12.4-17.8-21.4-31.3-24.7
	c-3.8-1-7.7-2.2-11.6-0.4c-27,12.8-52.3,27.7-74.1,48.7c-24.9,24-25,59.7-11.2,87.2c7.9-7.7,15.8-15.5,23.7-23.1
	c18.4-17.5,37.1-34.7,58.9-48c7.1-4.3,14.5-8.2,22.9-9.3c8.2-1.1,12.7,1,16.8,8.1c6,10.7,11.4,21.8,16,33.1
	c2.2,5.2,4.5,10.3,7.2,16.4C246.8,159.6,251.2,151,255.7,142L255.7,142z M96.4,327.1c-0.9,1.9-1.5,2.9-2,4c-0.8,2-1.6,4-2.3,6.1
	c-10,31.2-6,58.6,19.6,81.8c18.8,17,40.1,29.4,62.2,41.3c11,5.9,20.3,4.3,30.2-0.9c7.5-3.8,13.8-9.6,18.3-16.7
	c7.3-11.3,12.5-23.8,18.6-35.6c-3.1-10.4-6.1-20.5-9.3-31.3c-4.5,8.7-8.4,16.6-12.7,24.4s-9.7,9.9-18.4,8.1
	c-8.1-1.6-15.3-5.4-22.2-9.6c-14.4-8.8-27.4-19.5-40.1-30.7C123.8,355.1,110.3,341.5,96.4,327.1L96.4,327.1z M296.9,407.6
	c5.4,10.4,10.4,20.9,16.1,31.1c6.9,12.2,17.2,20.6,31,24.2c3.8,1,7.7,2.3,11.6,0.4c27-12.8,52.7-27.3,74-48.8
	c15-15,22-32.7,20.5-53.6c-0.8-12.1-4-23.9-9.4-34.8c-1.9,2.3-3.1,3.8-4.5,5.3c-21,21.7-42.6,42.6-67.3,60.2
	c-8.6,6.1-17.4,11.7-27.6,14.9c-12.5,3.9-18.2,1.7-24.4-9.6c-3.6-6.6-6.9-13.4-10.9-21.2C302.8,387,299.9,397.2,296.9,407.6
	L296.9,407.6z M268.7,274.1c-12,20-23.7,39.3-35.2,58.4c11.8,39.6,23.5,78.9,35.1,118.1l1.3-0.2l33.9-118L268.7,274.1z M401.8,228.5
	c11.1-21,12.4-45-7.9-64.8C381.9,152,368.2,142.9,354,134c-8.8-5.5-16.4-4.2-24.4,0.2c-5.4,3-10,7.4-13.1,12.7
	c-5.9,9.9-11.6,19.8-17.4,29.7c2.6,5.1,5,10.1,7.5,15.1c0.4,0.6,0.8,1.1,1.4,1.6c2.8-5.1,5.5-10.1,8.4-15
	c6.9-11.8,11.5-13.1,23.7-6.7c3.7,2,7.2,4.2,10.5,6.7c9.1,6.7,17.6,14.3,25.4,22.5C384.6,209.7,392.9,219,401.8,228.5L401.8,228.5z
	 M238.1,177c-6-10.3-11.8-20.7-18.1-30.7c-4.4-7.2-11.4-12.4-19.6-14.6c-3.6-1-7.4-2.3-11-0.4c-19.7,10.6-38,22.8-52.4,40.3
	c-12.1,14.7-12.5,40-0.8,57.2c1.3-1.5,2.6-3,3.9-4.4c14.1-16.1,28.6-31.9,45.8-44.9c5.9-4.4,11.9-8.6,19.2-10.4
	c5.7-1.4,10.1,0.1,13.1,5.3c3.7,6.4,7.5,12.8,11.4,19.6L238.1,177z M221.4,341.1l-2.3,3.4c-4.9,7.4-8.8,8.7-17.1,5.6
	c-5.2-2.1-10-4.8-14.4-8.3c-11.4-8.6-22-18.3-31.7-28.8c-6.7-7.2-13.3-14.5-20-21.9c-12.8,19.8-10.6,44.3,4.6,61.2
	c13.7,15.4,30.6,26.3,48.4,36c2.9,1.6,5.7,1.3,8.6,0.7c15.9-3.1,23.5-14.9,29.9-28C225.4,354.5,223.5,348.1,221.4,341.1z
	 M316.2,340.6c-1.9,6.6-3.6,12.4-5.2,18.2c-0.4,1.1-0.4,2.3,0,3.5c5.8,11.9,13.1,22.4,26.8,25.9c3.2,0.8,6.6,1.9,9.9,0.2
	c20.3-10.8,39.4-23.2,53.5-41.8c11.5-15,11.4-40.5,0-55.9c-1.3,1.5-2.6,2.9-3.9,4.4c-14.1,16.1-28.6,31.9-45.8,45
	c-6,4.5-12.2,8.9-19.8,10.5c-5.3,1.2-9.4-0.2-12.3-4.8C318.6,344.3,317.6,342.8,316.2,340.6L316.2,340.6z M271,259.9l26.9-53.8
	l-29.2-58.3l-29.2,58.3c8.6,17.2,17.1,34.1,25.5,51.2C266.3,259.8,267.6,261.1,271,259.9z"/>
<path class="st1" d="M269.2,7.2c144.9,0,262.3,117.5,262.2,262.4c-0.1,144.5-117.5,261.8-262.1,261.9C124.5,531.4,7.2,414,7.2,269
	C7.2,124.6,124.7,7.2,269.2,7.2L269.2,7.2z"/>
<g>
	<path class="st2" d="M40.6,372.9l-3.1-8.4l9.9-3.6l-1.7-4.6l-14.1-7.1l-4.7-12.8l19.4,10.8l7.7-22.3l4.7,12.7l-6,16.1l1.7,4.6
		l10.5-3.8l3.1,8.4L40.6,372.9z"/>
	<path class="st2" d="M25.5,329.7L23,314.4l19-18.6l-0.2-0.9l-21.4,3.7l-1.5-8.9l28.8-4.7l2.5,15.3l-19,18.6l0.2,1l21.4-3.6l1.4,8.9
		L25.5,329.7z"/>
	<path class="st2" d="M18.6,261.9c0-4.3,0.3-8.7,0.8-13c0.6-3.4,2.2-5.4,5-6.1c3.2-0.6,6.5-0.7,9.7-0.5c3.3,0,6.5,0.3,9.7,1.1
		c2.8,0.9,4.3,3,4.7,6.4c0.3,4.3,0.3,8.6,0.1,12.9c0,4.4-0.3,8.7-0.8,13.1c-0.6,3.4-2.2,5.4-5,6.1c-3.3,0.6-6.6,0.7-9.9,0.5
		c-3.2,0-6.4-0.3-9.5-1.1c-2.8-0.9-4.3-3-4.7-6.4C18.5,270.6,18.4,266.2,18.6,261.9z M26.2,262.1c-0.2,2.8-0.2,5.7,0.1,8.5
		c0.2,1,0.9,1.9,1.8,2.2c1.9,0.5,3.9,0.7,5.9,0.7c1.3,0.1,2.6,0,3.9-0.2c1.5-0.3,2.4-1.4,2.6-3.1c0.3-2.6,0.5-5.1,0.5-7.7
		c0.1-3.6,0.1-6,0-7.1c0-0.9-0.3-1.9-0.8-2.6c-0.4-0.6-1-0.9-1.7-1.1c-1.3-0.3-2.5-0.4-3.8-0.4c-1.5-0.1-3.1-0.1-4.6,0.1
		c-0.8,0-1.6,0.3-2.2,0.7c-0.7,0.6-1.1,1.4-1.2,2.3C26.5,255.4,26.4,258,26.2,262.1L26.2,262.1z"/>
	<path class="st2" d="M19.2,236l2.3-8.8l23.1-2.1l0.4-1.6l-19.5-11.9l2.7-10.4l22.8-0.9l0.4-1.6l-19.2-13.1l2.4-9.1l25.4,18.3
		l-3.4,13.3l-22.2,0.3l19.3,11l-3.4,13.3L19.2,236z"/>
	<path class="st2" d="M43.1,159.1l8.5-13.7l20.7,2.6l-11.6-17.3l8.4-13.6l24.8,15.3l-4.6,7.5l-18.5-11.6l-0.8,1.2l12.8,20.8
		l-3.9,6.3l-24.4-2.1l-0.8,1.3l18.7,11.3l-4.6,7.5L43.1,159.1z"/>
	<path class="st2" d="M72.9,112.6l8-8.5l15,1.1l-2.3-14.6l8-8.4l2.7,24.5l7.5,7.1l-6.3,6.7l-7.5-7.1L72.9,112.6z"/>
	<path class="st2" d="M115.1,71l13-8.6l24.8,9.8l0.8-0.5l-12.1-18.1l7.6-5l16,24.4l-12.9,8.5l-24.8-9.7l-0.8,0.5l12.1,18.1l-7.6,5
		L115.1,71z"/>
	<path class="st2" d="M197.5,59.7l-4.2-3.6l-17.9,7.2l-0.5,5.6l-9.4,3.8l3.4-32.8l12.8-5.2l25.1,21.2L197.5,59.7z M188.1,51.3
		l-9.4-8.1l-1.6,0.7L176,56.2L188.1,51.3z"/>
	<path class="st2" d="M201.8,26.9l15.9-2.8l11.8,17.2l5.3-20.1l15.8-2.7l5,28.7l-8.6,1.5l-3.5-21.6l-1.4,0.3l-7.2,23.4l-7.3,1.3
		L213,32.4l-1.5,0.3l4,21.5l-8.6,1.5L201.8,26.9z"/>
	<path class="st2" d="M259,18.7l32.3,0.7l-0.1,6.9l-23.5-0.5l-0.1,4.2l22.4,0.5l-0.1,6.5l-22.4-0.5l-0.1,4.7l23.7,0.5l-0.1,7
		l-32.5-0.7L259,18.7z"/>
	<path class="st2" d="M295,40.8l9.3,1.2l-1.1,8.4c-0.2,1.4-0.4,2.7-0.8,4c-0.2,0.7-0.6,1.4-1.2,2c-0.7,0.6-1.5,1-2.4,1.1
		c-1.7,0.1-3.3,0-4.9-0.3c-0.7-0.1-1.4-0.2-2.2-0.3l0.6-4.5l0.6,0.1l0.8,0.1c0.6,0.1,1.2,0,1.8-0.3c0.5-0.5,0.7-1.1,0.8-1.8l0.1-0.8
		l-2.4-0.3L295,40.8z"/>
	<path class="st2" d="M317.3,52.5l8.7-27.8l20.1,6.3c3.6,1.1,5.9,1.9,7,2.3c1.1,0.4,2.2,0.9,3.3,1.5c2.5,1.2,4,3.7,4,6.4
		c0,1.1-0.1,2.2-0.4,3.3c-0.2,1.2-0.7,2.9-1.4,5.1c-0.8,2.5-1.4,4.3-2,5.6c-0.5,1.2-1.1,2.3-1.8,3.3c-1.5,2.1-4,3.2-6.5,2.9
		c-1.3-0.1-2.7-0.3-4-0.7c-1.4-0.3-3.7-1-6.8-2L317.3,52.5z M327.9,48l11.8,3.7c1.6,0.5,3.2,1,4.9,1.3c0.8,0.2,1.6,0.2,2.4-0.1
		c0.7-0.3,1.2-0.9,1.6-1.6c0.6-1.2,1.1-2.5,1.5-3.8c0.4-1.3,0.8-2.6,1-4c0.1-0.8,0-1.5-0.2-2.3c-0.4-0.7-1-1.3-1.7-1.6
		c-1.7-0.7-3.4-1.3-5.1-1.8l-11.7-3.7L327.9,48z"/>
	<path class="st2" d="M368.3,39.3l8.5,3.8l-12,26.6l-8.6-3.8L368.3,39.3z"/>
	<path class="st2" d="M368,70.5l15-25l18.4,11.1c4.3,2.6,6.9,4.2,7.7,4.8c0.8,0.6,1.5,1.4,2,2.3c0.6,1.1,0.8,2.3,0.5,3.6
		c-0.5,1.8-1.3,3.5-2.3,5.1c-0.8,1.4-1.7,2.7-2.8,3.8c-0.7,0.7-1.5,1.1-2.5,1.3c-1.3,0.1-2.6-0.1-3.7-0.7c1.3,0.8,2.2,2,2.6,3.4
		c0.1,0.7,0,1.5-0.3,2.2c-0.7,1.5-1.5,3-2.4,4.4l-1.4,2.3l-7.5-4.5l0.8-1.3c0.6-1,1.2-2,1.6-3.1c0.2-0.5,0.3-1.1,0.3-1.7
		c-0.1-0.5-0.4-0.9-0.8-1.3c-1-0.7-2-1.4-3-2l-10.7-6.5l-3.8,6.4L368,70.5z M383.2,62.5l10.7,6.4c1.9,1.1,3,1.7,3.4,1.9
		c0.3,0.2,0.7,0.3,1.1,0.3c0.5,0,0.9-0.2,1.3-0.5c0.5-0.5,1-1.1,1.3-1.7c0.4-0.6,0.7-1.3,0.9-2c0.1-0.5,0-1-0.3-1.4
		c-0.2-0.3-0.5-0.5-0.8-0.7c-0.4-0.3-1.4-0.9-3.2-2l-10.7-6.5L383.2,62.5z"/>
	<path class="st2" d="M418.7,67.6l26.8,23l-4.8,5.6l-9.8-8.4l-14.1,16.5l-7.1-6.1l14.1-16.5l-9.9-8.5L418.7,67.6z"/>
	<path class="st2" d="M449,93.8l7.4,9l-3,14.8l14.8-0.4l7.4,8.9l-24.7-0.3l-8,6.6l-5.9-7.1l8-6.6L449,93.8z"/>
	<path class="st2" d="M485,140.7l4.2,8.4l-9.3,4.6l8.9,18l9.3-4.6l4.2,8.4l-26.1,13l-4.2-8.4l9.5-4.7l-8.9-18l-9.5,4.7l-4.2-8.4
		L485,140.7z"/>
	<path class="st2" d="M505.1,183l2.4,8.6l-12.9,3.6c-1.9,0.5-3.7,1.1-5.5,1.9c-1,0.5-1.6,1.6-1.6,2.7c0.2,2.5,0.8,5,1.5,7.4
		c0.5,2.1,1.2,4.1,2,6.1c0.3,0.9,0.9,1.6,1.7,2.1c0.5,0.2,1,0.3,1.5,0.3c0.9-0.1,1.8-0.2,2.7-0.4c1.3-0.3,2.3-0.6,3.1-0.8l12.9-3.6
		l2.4,8.6l-12.9,3.6c-4.5,1.2-7.5,1.8-8.9,2c-2.2,0.4-4.5-0.3-6.1-1.9c-1.1-1.2-2-2.7-2.6-4.2c-0.8-1.9-1.8-5.1-3.1-9.6
		c-1-3.4-1.6-6-2-7.9c-0.4-1.6-0.6-3.3-0.7-5c-0.3-2.9,1.3-5.6,4-6.8c1-0.5,1.9-0.9,2.9-1.2c0.9-0.3,3-0.9,6.3-1.9L505.1,183z"/>
	<path class="st2" d="M517.4,228l1.1,16.1l-18.3,9.9l19.5,7.4l1,16l-29.1,1.9l-0.6-8.7l21.8-1.2l-0.1-1.5l-22.5-9.5l-0.5-7.4
		l21.1-12.4l-0.1-1.6l-21.8,1.6l-0.6-8.8L517.4,228z"/>
	<path class="st2" d="M486.4,313.3l5.3-1.8l2.8-19.1l-4.6-3.2l1.5-10l26.7,19.5l-2,13.7l-31,10.9L486.4,313.3z M498.4,309.4l11.7-4
		l0.3-1.8l-10.1-7.1L498.4,309.4z"/>
	<path class="st2" d="M512.3,333l-5.2,14.7l-25.6,7.2l-0.3,0.9l20.6,7l-3,8.5l-27.5-9.7l5.1-14.6l25.6-7.2l0.3-0.9l-20.6-7l3-8.5
		L512.3,333z"/>
	<path class="st2" d="M95.4,438.3l9,7.6c-1.3,1.5-1.8,2.7-1.5,3.7c0.3,0.8,0.7,1.5,1.3,2c0.7,0.7,2.9,2.6,6.6,5.7
		c3.9,3.3,6.3,5.2,7.2,5.9c0.7,0.5,1.4,0.9,2.2,1.2c0.9,0.3,1.9-0.2,3-1.5c0.7-0.6,1-1.5,0.8-2.4c-0.6-1.2-1.5-2.2-2.5-3
		c-1.1-1-3.5-3.1-7.1-6.4c-3.6-3.3-6-5.5-7.2-6.5c-1.7-1.5-3.3-3.2-4.6-5c-0.9-1.2-1.3-2.6-1.4-4.1c-0.1-2.3,1.2-4.9,3.8-8
		c2.9-3.4,5.6-5.3,8.1-5.6c2.3-0.2,4.5,0.4,6.4,1.8c2.3,1.4,6.7,4.8,13,10.1c3.2,2.6,6.3,5.4,9.1,8.3c2.5,2.7,3.8,5.1,3.8,7.2
		c0.1,2-1.1,4.5-3.4,7.2c-0.2,0.3-0.6,0.7-1.2,1.4l-9-7.6c0.5-0.6,0.9-1.2,1.3-1.9c0.2-0.4,0.2-0.9,0-1.3c-0.4-0.9-1-1.6-1.7-2.2
		c-1-0.9-3.1-2.8-6.4-5.5c-4-3.3-6.5-5.2-7.5-5.7c-1.1-0.5-2.1-0.2-3,1c-0.9,0.8-1,2.1-0.4,3.1c0.6,0.8,3.7,3.7,9.4,8.8
		c4.8,4.3,8,7.2,9.5,8.8c1.3,1.3,2.3,2.8,3,4.5c0.6,1.5,0.6,3.2,0.1,4.8c-0.8,2.1-2,4-3.5,5.6c-2.4,2.9-4.6,4.7-6.6,5.5
		c-1.4,0.5-2.9,0.6-4.4,0.3c-1.9-0.6-3.7-1.5-5.2-2.6c-2.2-1.5-6-4.6-11.5-9.2c-4.6-3.8-7.9-6.8-9.9-8.9c-1.6-1.5-2.9-3.4-3.9-5.4
		c-0.6-1.5-0.7-3.1-0.2-4.6c0.8-2,2-3.9,3.4-5.5L95.4,438.3z"/>
	<path class="st2" d="M150.7,450l11.4,5.6l-6.3,12.8l24.6,12.1l6.3-12.8l11.4,5.6l-17.6,35.8l-11.4-5.6l6.4-13l-24.6-12.1l-6.4,13
		l-11.4-5.6L150.7,450z"/>
	<path class="st2" d="M200.7,473.7l43,9.9l-2.1,9.1l-31.4-7.2l-1.3,5.6l29.8,6.8l-2,8.5l-29.8-6.8l-1.4,6.2l31.6,7.3l-2.1,9.3
		l-43.3-10L200.7,473.7z"/>
	<path class="st2" d="M243.2,510.4l11.8,0.1c0,2,0.4,3.3,1.2,3.8c0.7,0.4,1.5,0.6,2.3,0.7c0.9,0.1,3.8,0.2,8.8,0.2h9.3
		c0.8,0,1.7-0.2,2.5-0.4c0.9-0.4,1.4-1.4,1.4-3c0.1-0.9-0.2-1.8-0.9-2.4c-1.2-0.5-2.5-0.8-3.9-0.7c-1.5,0-4.7-0.1-9.5-0.4
		c-5-0.3-8.2-0.4-9.7-0.5c-2.3,0-4.5-0.3-6.7-0.9c-1.4-0.4-2.7-1.2-3.7-2.3c-1.5-1.7-2.2-4.6-2.2-8.6c0-4.5,0.9-7.7,2.6-9.5
		c1.6-1.6,3.7-2.5,6-2.7c2.7-0.4,8.2-0.5,16.5-0.5c4.1-0.1,8.2,0.1,12.4,0.6c3.7,0.5,6.2,1.6,7.5,3.1c1.4,1.5,2,4.1,2,7.7
		c0,0.3,0,1,0,1.9l-11.8-0.1c0-0.8-0.1-1.5-0.3-2.3c-0.2-0.4-0.5-0.8-0.9-1c-0.9-0.4-1.8-0.6-2.8-0.6c-1.3-0.1-4.1-0.2-8.4-0.2
		c-5.2,0-8.3,0.1-9.4,0.4c-1.1,0.3-1.7,1.2-1.7,2.7c-0.2,1.2,0.6,2.3,1.7,2.6c0.9,0.3,5.2,0.5,12.9,0.8c6.5,0.2,10.8,0.5,12.9,0.8
		c1.8,0.2,3.6,0.7,5.2,1.5c1.4,0.8,2.5,2.1,3.1,3.6c0.7,2.1,1,4.4,0.9,6.6c0,3.8-0.5,6.6-1.6,8.4c-0.7,1.3-1.8,2.4-3.2,3
		c-1.8,0.8-3.8,1.2-5.7,1.3c-2.6,0.2-7.5,0.3-14.7,0.3c-6,0-10.4-0.2-13.3-0.6c-2.2-0.2-4.4-0.7-6.5-1.7c-1.4-0.8-2.5-2-3.1-3.4
		c-0.7-2.1-0.9-4.2-0.8-6.4L243.2,510.4z"/>
	<path class="st2" d="M293.2,484l11.8-2.8l3.3,14.1l6.5-1.5l12-18l18.1-4.3L327,496.2l29,14l-18,4.2l-20.9-10.7l-6.5,1.5l3.5,14.8
		l-11.8,2.8L293.2,484z"/>
	<path class="st2" d="M345.7,469.8l11.8-4.9l15.3,36.8l-11.8,4.9L345.7,469.8z"/>
	<path class="st2" d="M361.5,463.1l11.4-5.8l18.2,35.5l-11.4,5.8L361.5,463.1z"/>
	<path class="st2" d="M376.6,457.1l17-12.9l34.6,11.1l1-0.8L411,431.1l9.9-7.5l24.1,31.8l-16.9,12.7l-34.7-11.1l-1,0.8l18.1,23.6
		l-9.9,7.5L376.6,457.1z"/>
	<path class="st2" d="M407.6,215.6c-15.3-16-30.4-30.8-47-44.1c-7.5-6-15.1-11.6-23.6-16.1c-3.6-2-7.4-3.5-11.4-4.6
		c-8.9-2.1-12.8-0.5-17.3,7.5c-6,10.7-10.7,22-15.5,33.2c-0.6,1.4-0.8,3.1-2.5,4.5c-3.6-7.1-7.1-14.1-10.8-21.4
		c8.6-16.8,16.9-33.8,26-50.3c5.8-10.5,15.3-16.8,27.4-18.9c2-0.5,4.1-0.4,6,0.4c21.4,10.1,41.6,21.7,58.8,38.4
		c18.8,18.4,20.6,39.8,13.1,63.3C410,210,408.9,212.4,407.6,215.6L407.6,215.6z"/>
	<path class="st2" d="M258.8,174.9c-3.6,7.2-7.1,14.1-11,21.9c-2.1-4.9-4-9-5.8-13.2c-3.7-9.1-8-18-12.9-26.6
		c-3.3-5.7-6.9-7.4-13.5-6.5c-6.8,0.9-12.7,4-18.4,7.5c-17.5,10.6-32.5,24.4-47.3,38.5c-6.4,6.1-12.7,12.4-19,18.5
		c-11.1-22-11-50.7,9-69.9c17.5-16.9,37.8-28.9,59.5-39.1c3.2-1.5,6.3-0.5,9.3,0.3c10.8,2.6,20,9.9,25.1,19.8
		C242.4,142.2,250.4,158.4,258.8,174.9L258.8,174.9z"/>
	<path class="st2" d="M131,323.5c11.1,11.5,22,22.5,33.5,32.7c10.1,9,20.6,17.6,32.2,24.6c5.6,3.4,11.4,6.4,17.8,7.7
		c7,1.4,11.4-0.4,14.8-6.5s6.6-12.6,10.2-19.5c2.6,8.7,5,16.8,7.5,25.1c-4.9,9.5-9.1,19.5-15,28.6c-3.6,5.7-8.7,10.3-14.7,13.4
		c-7.9,4.1-15.4,5.5-24.3,0.7c-17.7-9.5-34.8-19.4-49.8-33.1c-20.5-18.6-23.7-40.6-15.7-65.6c0.5-1.7,1.2-3.3,1.9-4.9
		C129.8,325.8,130.3,325,131,323.5L131,323.5z"/>
	<path class="st2" d="M291.9,388.1c2.4-8.3,4.7-16.5,7.4-25.7c3.2,6.3,5.8,11.7,8.7,17c5,9.1,9.5,10.9,19.6,7.7
		c8.2-2.5,15.3-7,22.1-11.9c19.8-14.1,37.2-30.9,54-48.3c1.1-1.1,2-2.4,3.6-4.2c4.4,8.7,7,18.2,7.6,27.9c1.1,16.8-4.5,31-16.5,43
		c-17.1,17.2-37.8,28.9-59.4,39.2c-3.1,1.5-6.3,0.4-9.3-0.3c-11-2.9-19.3-9.6-24.9-19.4C300.2,404.9,296.2,396.4,291.9,388.1
		L291.9,388.1z"/>
	<path class="st2" d="M269.3,281c9.6,16,18.9,31.4,28.2,46.8c-9.1,31.6-18.2,63.1-27.2,94.6l-1,0.2L241,327.8L269.3,281z"/>
</g>
<path class="st3" d="M376.1,244.4c-7.1-7.7-13.9-15.1-20.8-22.3c-6.2-6.6-13.1-12.6-20.4-18c-2.7-2-5.5-3.8-8.5-5.3
	c-9.8-5.1-13.5-4.1-19,5.4c-2.3,3.9-4.4,7.9-6.7,12c-0.4-0.4-0.8-0.8-1.1-1.3c-2-4-4-7.9-6-12.1c4.6-8,9.2-16,14-23.9
	c2.5-4.3,6.2-7.8,10.5-10.2c6.5-3.6,12.6-4.6,19.6-0.2c11.4,7.1,22.3,14.4,32,23.9C386.1,208.3,385,227.5,376.1,244.4z"/>
<path class="st3" d="M244.7,203l-6.8,13.6c-3.2-5.4-6.2-10.6-9.2-15.7c-2.4-4.2-5.9-5.4-10.5-4.3c-5.9,1.4-10.7,4.8-15.4,8.3
	c-13.8,10.4-25.4,23.1-36.8,36l-3.1,3.6c-9.4-13.7-9.1-34.1,0.6-45.9c11.6-14,26.3-23.9,42.1-32.3c2.9-1.6,6-0.5,8.8,0.3
	c6.5,1.7,12.2,5.9,15.7,11.7C235.3,186.4,239.9,194.8,244.7,203z"/>
<path class="st3" d="M231.3,334.7l4.9,16c-5.2,10.6-11.3,20-24,22.5c-2.4,0.5-4.6,0.7-6.9-0.6c-14.3-7.9-27.8-16.6-38.8-28.9
	c-12.3-13.6-13.8-33.8-3.7-49.1c5.4,5.9,10.7,11.8,16.1,17.6c7.7,8.5,16.3,16.2,25.4,23.1c3.5,2.7,7.4,5,11.6,6.6
	c6.7,2.5,9.8,1.4,13.7-4.5L231.3,334.7z"/>
<path class="st3" d="M307.4,334.3c1.1,1.8,1.9,2.9,2.7,4.1c2.3,3.7,5.6,4.8,9.9,3.9c6.1-1.4,11-4.8,15.9-8.5
	c13.8-10.4,25.4-23.1,36.8-36.1c1-1.2,2.1-2.3,3.1-3.5c9.1,12.3,9.2,32.8,0,44.8c-11.4,14.9-26.7,24.8-43,33.5
	c-2.6,1.4-5.4,0.5-8-0.1c-11.1-2.8-16.9-11.2-21.6-20.8c-0.3-0.9-0.3-1.9,0-2.8C304.5,344.2,305.8,339.6,307.4,334.3L307.4,334.3z"
	/>
<path class="st2" d="M271.1,269.5c-2.7,1-3.8-0.1-4.8-2.1c-6.7-13.6-13.6-27.3-20.5-41l23.4-46.8l23.4,46.8L271.1,269.5z"/>
</svg>
