<?xml version="1.0" encoding="utf-8"?>
<!-- Generator: Adobe Illustrator 23.0.1, SVG Export Plug-In . SVG Version: 6.00 Build 0)  -->
<svg version="1.1" id="Capa_1" xmlns="http://www.w3.org/2000/svg" xmlns:xlink="http://www.w3.org/1999/xlink" x="0px" y="0px"
	 viewBox="0 0 538.6 538.6" style="enable-background:new 0 0 538.6 538.6;" xml:space="preserve">
<style type="text/css">
	.st0{fill:#F9E400;}
	.st1{fill:#004560;}
</style>
<circle class="st0" cx="269.3" cy="269.3" r="269.3"/>
<circle class="st1" cx="269.3" cy="269.3" r="260"/>
<g>
	<path class="st0" d="M194.2,336.1c22.3,47.2,30.4,97.8,36.3,148.9c0.7-24.1,0.2-48.1-1.3-72.1c-1.4-22.5-3.6-44.9-6.9-67.2
		c-3.8-25.7-9.1-51.1-17.6-75.7c-2.2-6.4-5-12.6-7.7-19.4c-15.1,27.4-24,56.4-30.2,86.4c-1.1-0.3-1.2-1.1-1.6-1.6
		c-11.7-17.8-21.5-36.7-29.1-56.5c-7.2-19-12.7-38.6-16.4-58.5c-4.6-24.4-7.1-49-8.7-73.8c-1.4-23.4-2.8-46.9-4.1-70.4
		c0-0.8-0.2-1.7-0.6-2.4c-1.1,6.1-2.3,12.2-3.4,18.3c-5.3,30.2-7.6,60.8-7.1,91.4c0.5,35,5,69.9,13.6,103.9
		c6.1,24,14.2,47.5,24.3,70.1c5.1,11.5,11.1,22.6,16.8,33.9c1,1.9,1.6,1.6,3,0.5c17.7-15.2,32-32.8,40.4-54.8
		C193.9,336.6,194.1,336.3,194.2,336.1L194.2,336.1z"/>
	<path class="st0" d="M307.7,482.5c0.9-0.5,0.9-1.4,1-2.2c2.1-15.6,4.2-31.2,6.6-46.8c5.2-33.5,15-65.6,28.4-96.8
		c0.2-0.3,0.3-0.6,0.5-0.9c0.4,0.9,0.8,1.6,1.1,2.3c8.5,21.7,22.9,39,40.4,53.9c1.5,1.3,1.8,0.2,2.3-0.8
		c11.1-20.3,20.6-41.3,28.6-63c9.7-27,16.7-54.9,21-83.3c4.6-30.3,6.2-61,4.8-91.6c-1.1-25.4-4.2-50.7-9.3-75.6
		c-0.2-1.4-0.6-2.9-1.2-4.2c-0.3,4-0.6,7.9-0.9,11.9c-1,18.2-1.9,36.4-3,54.6c-1.8,30.5-4.7,60.9-11.3,90.8
		c-8,36-21.1,69.8-41.2,100.8c-1,1.5-1.9,3.1-2.9,4.7c-0.2,0.2-0.5,0.4-0.7,0.5c-6.1-30.1-15.1-59.1-30.2-86.5
		c-2.2,5.4-4.4,10.2-6.2,15.1c-6.2,17-11,34.6-14.4,52.4c-6.6,33.4-10.2,67.1-12.1,101.1C307.8,440.2,307.4,461.3,307.7,482.5
		L307.7,482.5z"/>
	<path class="st0" d="M378.3,300.2c-0.5-10.1-1.1-20.3-1.6-30.4c-1.4-25.1-2.7-50.1-4.1-75.2c-0.9-15.6-1.7-31.1-2.5-46.7
		c-0.1-2.3-0.7-2-2.3-1c-11.6,7.5-21.1,17.3-29.8,27.9c-1,1.2-0.8,2.2-0.4,3.5c12.8,38.9,25.6,77.8,38.4,116.7
		c0.6,1.8,1.2,3.6,1.8,5.3L378.3,300.2z"/>
	<path class="st0" d="M269.2,93.9c-2.2,9.9-4.3,19.8-6.5,29.8c-5.3,24.5-10.6,49-15.9,73.6c-3.3,15.2-6.6,30.5-9.9,45.7
		c-0.5,2.2,0.1,2.1,1.9,1.6c13.2-4.2,24.9-11.1,36.1-19c1.3-0.9,1.3-2,1.3-3.3c-2.1-40.9-4.1-81.8-6.2-122.7
		c-0.1-1.9-0.2-3.8-0.3-5.6L269.2,93.9z"/>
	<path class="st0" d="M269.4,94.5c2.1,9.9,4.3,19.8,6.5,29.7c5.3,24.5,10.6,49.1,15.9,73.6c3.3,15.2,6.6,30.5,9.9,45.7
		c0.5,2.2-0.1,2.1-1.9,1.6c-13.2-4.2-24.9-11.1-36.1-19c-1.3-0.9-1.3-2-1.3-3.3c2.1-40.9,4.1-81.8,6.2-122.7
		c0.1-1.9,0.2-3.8,0.3-5.6L269.4,94.5z"/>
	<path class="st0" d="M161.9,303.3l31.7-96.3c2.7-8.2,5.4-16.4,8.1-24.6c0.5-1,0.4-2.2-0.3-3.1c-9-11-18.8-21.1-31-28.7
		c-0.2-0.1-0.4-0.2-0.6-0.3c-0.7,0.6-0.5,1.3-0.5,2c-1.5,27.8-3,55.6-4.5,83.3c-1,18.8-2.1,37.7-3.1,56.5c-0.1,1.6-0.1,3.2-0.2,4.8
		c0.3,1.5,0.2,3-0.3,4.4l-0.1,1.4L161.9,303.3z"/>
</g>
</svg>
