<?xml version="1.0" encoding="utf-8"?>
<!-- Generator: Adobe Illustrator 23.0.1, SVG Export Plug-In . SVG Version: 6.00 Build 0)  -->
<svg version="1.1" id="Capa_1" xmlns="http://www.w3.org/2000/svg" xmlns:xlink="http://www.w3.org/1999/xlink" x="0px" y="0px"
	 viewBox="0 0 538.6 538.6" style="enable-background:new 0 0 538.6 538.6;" xml:space="preserve">
<style type="text/css">
	.st0{fill:#185285;}
	.st1{fill:#02223D;}
	.st2{fill:#F6F6F6;}
	.st3{fill:#F6F6F6;stroke:#F6F6F6;stroke-width:7;stroke-miterlimit:10;}
	.st4{fill:#9E151A;}
</style>
<path class="st0" d="M269.3,536.1C121.9,536.1,2.5,416.6,2.5,269.3c0-70.8,28.1-138.6,78.1-188.6c104.2-104.2,273.1-104.2,377.3,0
	s104.2,273.1,0,377.3C408,508.1,340.1,536.3,269.3,536.1z"/>
<path class="st1" d="M269.3,5c146,0.1,264.3,118.5,264.2,264.5c0,106.2-63.6,202-161.4,243.4C237,568,82.7,503.1,27.5,367.9
	C-26.7,235.1,35,83.3,166.4,25.8C199,12,233.9,5,269.3,5 M269.3,0C120.6,0,0,120.6,0,269.3s120.6,269.3,269.3,269.3
	S538.6,418,538.6,269.3S418,0,269.3,0L269.3,0z"/>
<g>
	<path class="st2" d="M56,405l-2.9-4.9l7.6-4.5l-1.9-3.3l4.4-2.6l1.9,3.3l6.9-4l-2.6-4.5l-19.7,9.5l-2.8-4.8l24.3-11.9l8.2,13.9
		L56,405z"/>
	<path class="st2" d="M92.4,409.6l-21.8,16l-3.3-4.6l3-2.2l-10.7-7.4l22.2-16.3l3.3,4.5l-16.6,12.2l5.6,4.1L89,405.1L92.4,409.6z"/>
	<path class="st2" d="M100,426.3l-2.3-2.6L81.3,438l-3.7-4.2L94,419.5l-3.8-4.4l3.9-3.4l9.8,11.2L100,426.3z"/>
	<path class="st2" d="M119,437.8l-18.8,19.4l-13-12.5l18.8-19.4L119,437.8z M99.7,449.6l11.6-12.1l-4.8-4.6l-11.6,12L99.7,449.6z"/>
	<path class="st2" d="M136.8,451.4L119.8,473l-4.4-3.5l12.8-16.1l-6.5-2.5l-11.5,14.5l-4.4-3.5l16.8-21.2l4.4,3.5l-2.3,3
		L136.8,451.4z"/>
	<path class="st2" d="M155.2,464.2l-14.6,22.7l-15.1-9.7l14.6-22.7L155.2,464.2z M138.6,479.5l9.1-14.1l-5.6-3.6l-9,14.1
		L138.6,479.5z"/>
	<path class="st2" d="M186.4,479.2L174.6,504l-5.1-2.4l8.8-18.6l-7-1l-7.9,16.7l-5.1-2.4l8.8-18.6l-7-1l-7.9,16.7l-5.1-2.4
		l11.6-24.4l5.1,2.4l-1.6,3.4l13.1,1.5l-1.9,3.9L186.4,479.2z"/>
	<path class="st2" d="M207.4,486.5l-8.4,25.7l-17.1-5.6l8.4-25.7L207.4,486.5z M195.1,505.5l5.2-15.9l-6.3-2.1l-5.2,15.9
		L195.1,505.5z"/>
	<path class="st2" d="M229.2,491.5l-5.8,26.4l-5.5-1.2l0.8-3.7l-12.9,1.6l5.9-26.9l5.5,1.2l-4.4,20.1l7-0.6l4-18L229.2,491.5z"/>
	<path class="st2" d="M238.2,498l-0.4,3.3l10,4.1l-1.9,15.6l-16-2l0.6-5.1l10.4,1.3l0.8-6.7l-10-4.1l1.5-12.1l16,2l-0.6,5.1
		L238.2,498z"/>
	<path class="st2" d="M279.8,521.8h-5.7l-0.1-8.8h-3.8v-5.1h3.8l-0.1-8h-5.2l-1.6,21.9h-5.6l1.9-27l16.1-0.1L279.8,521.8z"/>
	<path class="st2" d="M291.9,515.8l6.6-0.7l-1.3-12.8l5.6-0.6l2.8,26.9l-5.6,0.6l-0.9-9l-12.3,1.3l-2.8-26.9l17.9-1.9l0.5,5.1
		l-12.3,1.3L291.9,515.8z"/>
	<path class="st2" d="M312.7,495.9l0.7,3.8l8.2-1.6l0.9,4.8l-8.2,1.6l1.5,7.8l8.2-1.6l1,5l-13.7,2.7l-5.2-26.5l13.7-2.6l1,5
		L312.7,495.9z"/>
	<path class="st2" d="M340.7,482.9l7.6,26.5l-5.5,1.6l-5.7-19.8l-5.8,3.9l5.1,17.7l-5.4,1.6l-7.5-25.9l5.4-1.6l1,3.6L340.7,482.9z"
		/>
	<path class="st2" d="M359.1,482l-3.2,1.3l7.9,20.4l-5.3,2l-7.9-20.4l-5.4,2.1l-1.9-4.8l13.9-5.4L359.1,482z"/>
	<path class="st2" d="M383.9,463.9l12.8,23.8l-15.8,8.5l-12.8-23.8L383.9,463.9z M389.2,485.9l-7.9-14.8l-5.9,3.1l7.9,14.8
		L389.2,485.9z"/>
	<path class="st2" d="M395.3,462.7l4.3,6.6l7-4.6l2.8,4.3l-7,4.6l4.8,7.4l-4.7,3.1l-14.8-22.6l11.7-7.7l2.8,4.3L395.3,462.7z"/>
	<path class="st2" d="M416.7,446.9l10.8,12.8l6.4-5.4l3.3,3.9l-10.7,9L409,446.6l10.7-9l3.3,3.9L416.7,446.9z"/>
	<path class="st2" d="M435,422.7l19.1,19.1l-4,4l-9.4-9.4L436,441l9.4,9.4l-4,4l-19.1-19.1l4-4l6,6l4.7-4.7l-6-6L435,422.7z"/>
	<path class="st2" d="M469.9,422.8l-3.5,4.4l-6.8-5.5l-2.4,3l-4-3.2l2.4-3l-6.2-5l-3.2,4l15.9,15.1l-3.5,4.4l-19.7-18.5l10.1-12.5
		L469.9,422.8z"/>
	<path class="st2" d="M461.7,387.4l22.4,15.1l-10,14.9l-22.4-15.1L461.7,387.4z M476.7,404.3l-13.9-9.3l-3.7,5.5l13.9,9.3
		L476.7,404.3z"/>
	<path class="st2" d="M471,381.5l2.9,1.6l7.5-7.8l13.8,7.5l-7.7,14.1l-4.5-2.4l5-9.2l-6-3.2l-7.5,7.8l-10.8-5.8l7.7-14.1l4.5,2.5
		L471,381.5z"/>
	<path class="st3" d="M308.3,300.2c-13,57.7-26.2,114.6-39,171.4c-12.8-56.8-26-113.6-39-171.4C256.3,319.8,281.9,320,308.3,300.2z"
		/>
	<path class="st3" d="M292.9,108c17.4,4,33.2,10.6,47,21.4c1.6,1.2,2.9,0.9,4.6,0c14.9-7.6,29.9-15,45.1-22.5c0.2,4-2.4,6.8-3.7,10
		c-5.3,12.9-11,25.6-16.8,38.3c-1,2.2-0.7,3.1,0.6,5.1c6.9,10.1,12.4,21.1,16.5,32.6c2.7,7.4,4.1,15.1,6.2,23.1
		c-7.2-2.4-14-4.7-20.9-7.1c-2.6-0.9-3.3-3.4-4-5.7c-2.5-8.2-6.5-15.6-10.8-22.9c-1.1-2.2-3.4-3.6-5.9-3.3c-7.2,0.4-14.5,0-21.8,0.2
		c-2.7,0.1-3.5-0.6-3.5-3.4c0.2-7.4,0-14.8,0.1-22.2c0-2.3-0.4-3.8-2.6-5.3c-5.5-3.7-11.5-6.7-17.7-8.9c-2.2-0.6-3.9-2.2-4.5-4.4
		C298.2,124.6,295.6,116.5,292.9,108L292.9,108z"/>
	<path class="st3" d="M148.8,106.8c15.3,7.6,30.2,15,45,22.5c1.8,0.9,3.2,1.4,5,0c13.9-10.7,29.5-17.4,47-21.3
		c-3,9.1-6.1,17.8-8.9,26.6c-0.6,1.8-1.9,1.9-3.1,2.4c-6.4,2.5-12.7,5.2-18.4,9.3c-1.9,1.3-2.5,2.4-2.5,4.5
		c0.1,7.7-0.1,15.4,0.1,23.1c0.1,2.6-0.8,3.2-3.3,3.2c-7.3-0.1-14.5,0.1-21.8-0.1c-3.1-0.1-4.7,1-6.2,3.5c-4.5,7.1-8,14.6-10.6,22.6
		c-1.1,3.4-2.7,5.6-6.4,6.6c-6,1.7-11.9,3.8-18.3,5.9c4-20.8,11.3-39.6,23.4-56.3c1.3-1.7,0.2-2.5-0.3-3.7
		c-6.9-15.5-13.7-31-20.6-46.5C148.8,108.3,148.8,107.6,148.8,106.8z"/>
	<path class="st3" d="M211.9,243.3c-0.2-21.5,6.5-38,20.4-51.3c19.4-18.7,48.8-20.4,69.7-3.6c13.5,10.8,21.4,24.7,23.9,41.8
		c2.6,17.6,0.4,34.4-10,49.1c-12.8,18.2-30.4,28.2-53.2,25.6c-14.5-1.6-26.1-9.2-35.7-20.3c-6.7-7.8-11.4-17.2-13.6-27.3
		C212.3,252.7,211.8,248,211.9,243.3L211.9,243.3z M315.1,240.3c1.5-16.3-10.6-36.1-23.3-43.6c-15.6-9.1-34.9-9.1-49.7,2.5
		c-16.6,13-22.4,31.4-19.1,51.7c2.4,14.6,10.2,27,23.5,35c15.6,9.5,35.4,8.1,49.6-3.4C309,271.9,315.7,257.8,315.1,240.3
		L315.1,240.3z"/>
	<path class="st3" d="M392.2,267c-1.7,9.3-4.2,18.5-7.7,27.4c-3.8,10.3-9,20-15.4,28.9c-1.4,1.9-1.3,3-0.4,4.9
		c7.1,15.6,14,31.2,20.9,46.9c0.1,0.7,0.1,1.4,0,2.1c-15.2-7.6-30.2-15-45.1-22.5c-2.5-1.3-3.9-1.2-6.5,0.6
		c-10.5,7.3-21.8,13.3-34.2,17c-3,0.9-2.4-0.7-2.1-1.9c1.6-7.4,3.5-14.8,5.2-22.2c0.1-1.4,1.2-2.6,2.6-2.9c3.2-1.2,6.4-2.7,9.4-4.4
		c4.6-2.6,7.9-5.5,7-11.9c-0.9-6.1-0.1-12.4-0.2-18.6c-0.1-2.6,0.8-3.2,3.3-3.2c7.5,0.1,15.1-0.1,22.7,0.1c1.9,0.2,3.7-0.7,4.5-2.4
		c4.3-7.3,8.8-14.5,10.7-22.9c1-4.4,3.3-7.5,8.2-8.7C380.8,271.5,386.3,269,392.2,267L392.2,267z"/>
	<path class="st3" d="M148.9,377c0-4.1,2.5-7,3.9-10.2c5.5-13.1,11.5-26,17.2-39c0.5-1.2,1.4-2.1,0.1-3.8
		c-7.9-10.2-13.2-21.8-17.7-33.9c-2.6-7.4-4.6-14.9-5.9-22.6c7.4,2.5,14.8,4.7,21.8,7.6c2.5,1.1,2.8,4.8,3.6,7.5
		c2.4,8.4,6.6,15.8,11.3,23c1.1,1.6,2.2,1.2,3.3,1.2c7.7,0.1,15.4,0.1,23.1,0c2.5,0,3.3,0.6,3.2,3.2c-0.2,7.7,0,15.4-0.1,23.1
		c0,2.1,0.7,3.2,2.5,4.5c3.9,2.9,8.3,5.3,12.9,7c2.2,0.7,3.8,2.6,4.1,4.9c1.2,6.8,2.8,13.5,4.5,20.2c0.4,1.6,0.9,3.3-2.5,2.3
		c-12.2-3.8-23.8-9.6-34.2-17.1c-2.2-1.6-3.6-1.7-5.8-0.6C179.3,361.8,164.3,369.3,148.9,377L148.9,377z"/>
	<path class="st3" d="M209.8,279.2L98.3,241.4l111.4-37.8C199.3,228.8,199.2,253.9,209.8,279.2z"/>
	<path class="st3" d="M328.8,203.7l111.5,37.8l-111.5,37.8C339.3,254,339.4,229,328.8,203.7z"/>
	<path class="st3" d="M269.3,66.9c12.8,37.8,25.3,74.5,38.1,112.2c-12-8.2-23.8-13.9-38-13.9s-26.2,5.6-38.1,14
		C244,141.5,256.5,104.8,269.3,66.9L269.3,66.9z"/>
	<path class="st3" d="M233.3,240.4c-1.4-9.8,2.6-19.4,9.6-26.9c12.8-13.8,30.3-17.9,47-5.2c10.6,8.1,15.4,18.8,15.6,32.3
		c0.2,11.3-2.6,21.3-10.1,29.1c-13.3,13.8-30.5,17.2-46.7,4.8C237.8,266.3,232.6,255.2,233.3,240.4z"/>
	<path class="st2" d="M152.2,52.4l13.6,23.3l-14,8.2l-15.3-22.3l4.9-2.8l12.5,18.1l4.5-2.7l-11-18.9L152.2,52.4z"/>
	<path class="st2" d="M165.7,45.8l11.7,24.3l-8,3.9l-2.2-4.6l2.9-1.4l-7.3-15.1l-2.9,1.4l-2.2-4.6L165.7,45.8z"/>
	<path class="st2" d="M179.1,45.6l6.2,15.6l7.7-3.1l1.9,4.7L182,68l-10-25.1l13-5.2l1.9,4.8L179.1,45.6z"/>
	<path class="st2" d="M204.3,37l-3.3,1l6.5,20.9l-5.4,1.7l-6.5-20.9l-5.5,1.7l-1.5-4.9l14.2-4.4L204.3,37z"/>
	<path class="st2" d="M225.8,26.7l5.7,26.4L214,56.9l-5.8-26.4L225.8,26.7z M224.9,49.3L221.4,33l-6.6,1.4l3.6,16.4L224.9,49.3z"/>
	<path class="st2" d="M254.1,49.1l-4.9,2.6l-7.1-13.5l4-0.5l-1-8.3l-5.9,0.7l2.5,21.7l-5.6,0.6L233,25.6l17.2-2l2,17.4l-2.4,0.3
		L254.1,49.1z"/>
	<path class="st2" d="M297.9,23.6l-1.5,27.5l-5.7-0.3l1.1-20.5L285,32l-1,18.4l-5.7-0.3l1.1-20.5l-6.9,1.7l-1,18.4l-5.7-0.3l1.4-27
		l5.7,0.3l-0.2,3.8l12.6-3.6l-0.2,4.3L297.9,23.6z"/>
	<path class="st2" d="M310.1,31.6l-0.7,3.8l8.2,1.4l-0.8,4.8l-8.2-1.4l-1.4,7.9l8.2,1.4l-0.9,5l-13.8-2.4l4.7-26.6l13.8,2.4
		l-0.9,5.1L310.1,31.6z"/>
	<path class="st2" d="M329,35.6l-0.9,3.2l9.3,5.5l-4,15.1l-15.6-4.2l1.3-4.9l10.1,2.7l1.8-6.5l-9.4-5.5l3.2-11.8l15.6,4.2l-1.3,5
		L329,35.6z"/>
	<path class="st2" d="M350.1,42.1l-1.1,3.1l8.8,6.3l-5.4,14.7l-15.1-5.6l1.8-4.8l9.8,3.6l2.3-6.3l-8.8-6.3l4.2-11.5l15.1,5.6
		l-1.8,4.8L350.1,42.1z"/>
	<path class="st2" d="M370.9,50.6l-1.6,3.5l7.5,3.6l-2.1,4.4l-7.5-3.5l-3.4,7.2l7.5,3.6l-2.2,4.6l-12.7-6L368,43.5l12.7,6l-2.2,4.7
		L370.9,50.6z"/>
	<path class="st2" d="M389.1,83.9l-5.5-0.9l2.4-15.1l3.5,2l4.2-7.2l-5.2-3l-11,18.9l-4.9-2.9l13.6-23.3l14.9,8.8l-8.9,15.1l-2-1.2
		L389.1,83.9z"/>
</g>
<path class="st4" d="M308.3,300.2c-13,57.7-25.8,114.5-38.6,171.4l-0.9,0.1c-12.8-56.8-25.6-113.7-38.6-171.4
	C256.3,319.8,281.9,320,308.3,300.2z"/>
<path class="st4" d="M292.9,108c17.4,4,33.2,10.6,47,21.4c1.6,1.2,2.9,0.9,4.6,0c14.9-7.5,29.9-15,45.1-22.5c0.2,4-2.4,6.8-3.7,10
	c-5.3,12.9-11,25.6-16.8,38.3c-1,2.2-0.7,3.1,0.6,5.1c6.9,10.1,12.4,21.1,16.5,32.6c2.7,7.4,4.1,15.1,6.2,23.1
	c-7.2-2.4-14-4.7-20.9-7.1c-2.6-0.9-3.3-3.4-4-5.7c-2.5-8.2-6.5-15.6-10.8-22.9c-1.1-2.2-3.4-3.6-5.9-3.3c-7.2,0.4-14.5,0-21.8,0.2
	c-2.7,0.1-3.5-0.6-3.5-3.4c0.2-7.4,0-14.8,0.1-22.2c0-2.3-0.4-3.8-2.6-5.3c-5.5-3.7-11.5-6.7-17.7-8.9c-2.2-0.6-3.9-2.2-4.5-4.4
	C298.2,124.6,295.6,116.5,292.9,108L292.9,108z"/>
<path class="st4" d="M148.8,106.8c15.3,7.6,30.2,15,45,22.4c1.8,0.9,3.2,1.4,5,0c13.9-10.7,29.5-17.4,47-21.3
	c-3,9.1-6.1,17.8-8.9,26.6c-0.6,1.8-1.9,1.9-3.1,2.4c-6.4,2.5-12.7,5.2-18.4,9.3c-1.9,1.3-2.5,2.4-2.5,4.5
	c0.1,7.7-0.1,15.4,0.1,23.1c0.1,2.6-0.8,3.2-3.3,3.2c-7.3-0.1-14.5,0.1-21.8-0.1c-3.1-0.1-4.7,1-6.2,3.5c-4.4,7.1-8,14.7-10.6,22.6
	c-1.1,3.4-2.7,5.6-6.4,6.6c-6,1.7-11.9,3.8-18.3,5.9c4-20.8,11.3-39.6,23.4-56.3c1.3-1.7,0.2-2.5-0.3-3.7
	c-6.9-15.5-13.7-31-20.6-46.5C148.8,108.3,148.8,107.6,148.8,106.8z"/>
<path class="st4" d="M211.9,243.3c-0.2-21.5,6.5-38,20.4-51.3c19.4-18.7,48.8-20.4,69.7-3.6c13.5,10.8,21.4,24.7,23.9,41.8
	c2.6,17.6,0.4,34.4-10,49.1c-12.8,18.2-30.4,28.2-53.2,25.6c-14.5-1.6-26.1-9.2-35.7-20.3c-6.7-7.8-11.4-17.2-13.6-27.3
	C212.3,252.7,211.8,248,211.9,243.3L211.9,243.3z M315.1,240.3c1.5-16.3-10.6-36.1-23.3-43.6c-15.6-9.1-34.9-9.1-49.7,2.5
	c-16.6,13-22.4,31.4-19.1,51.7c2.4,14.6,10.2,27,23.5,35c15.6,9.5,35.4,8.1,49.6-3.4C309,271.9,315.7,257.8,315.1,240.3L315.1,240.3
	z"/>
<path class="st4" d="M392.2,267c-1.7,9.3-4.2,18.5-7.7,27.4c-3.8,10.3-9,20-15.4,28.9c-1.4,1.9-1.3,3-0.4,4.9
	c7.1,15.6,14,31.2,20.9,46.8c0.1,0.7,0.1,1.4,0,2.1c-15.2-7.6-30.2-15-45.1-22.5c-2.5-1.3-3.9-1.2-6.5,0.6
	c-10.5,7.3-21.8,13.3-34.2,17c-3,0.9-2.4-0.7-2.1-1.9c1.6-7.4,3.5-14.8,5.2-22.2c0.1-1.4,1.2-2.6,2.6-2.9c3.2-1.2,6.4-2.7,9.4-4.4
	c4.6-2.6,7.9-5.5,7-11.9c-0.9-6.1-0.1-12.4-0.2-18.6c-0.1-2.6,0.8-3.2,3.3-3.2c7.5,0.1,15.1-0.1,22.7,0.1c1.9,0.2,3.7-0.7,4.5-2.4
	c4.3-7.3,8.8-14.5,10.7-22.9c1-4.4,3.3-7.5,8.2-8.7C380.8,271.5,386.3,269,392.2,267L392.2,267z"/>
<path class="st4" d="M148.9,377c0-4.1,2.5-7,3.9-10.2c5.5-13.1,11.5-26,17.2-39c0.5-1.1,1.4-2.1,0.1-3.8
	c-7.9-10.2-13.2-21.8-17.7-33.9c-2.6-7.4-4.6-14.9-5.9-22.6c7.4,2.5,14.8,4.7,21.8,7.6c2.5,1.1,2.8,4.8,3.6,7.5
	c2.4,8.4,6.6,15.8,11.3,23c1.1,1.6,2.2,1.2,3.3,1.2c7.7,0.1,15.4,0.1,23.1,0c2.5,0,3.3,0.6,3.2,3.2c-0.2,7.7,0,15.4-0.1,23.1
	c0,2.1,0.7,3.2,2.5,4.5c3.9,2.9,8.3,5.3,12.9,7c2.2,0.7,3.8,2.6,4.1,4.9c1.2,6.8,2.8,13.5,4.5,20.2c0.4,1.6,0.9,3.3-2.5,2.3
	c-12.2-3.8-23.8-9.6-34.2-17.1c-2.2-1.6-3.6-1.7-5.8-0.6C179.3,361.8,164.3,369.3,148.9,377L148.9,377z"/>
<path class="st4" d="M209.8,279.2L98.3,241.5l111.4-37.8C199.3,228.8,199.2,253.9,209.8,279.2z"/>
<path class="st4" d="M328.8,203.7l111.5,37.8l-111.5,37.8C339.3,254,339.4,229,328.8,203.7z"/>
<path class="st4" d="M269.3,66.9c12.8,37.8,25.3,74.5,38.1,112.2c-12-8.2-23.8-13.9-38-13.9s-26.2,5.6-38.1,14
	C244,141.5,256.5,104.8,269.3,66.9L269.3,66.9z"/>
<path class="st4" d="M233.3,240.4c-1.4-9.8,2.6-19.3,9.6-26.9c12.8-13.8,30.3-17.9,47-5.2c10.6,8.1,15.4,18.8,15.6,32.3
	c0.2,11.2-2.6,21.3-10.1,29.1c-13.3,13.8-30.5,17.2-46.7,4.8C237.8,266.3,232.6,255.2,233.3,240.4L233.3,240.4z"/>
</svg>
